<svg xmlns="http://www.w3.org/2000/svg" viewBox="0 0 800 200" width="800" height="200">
  <defs>
    <style>
      .bg { fill: #0a0a16; }
      .title { font-family: monospace; font-size: 44px; font-weight: bold; fill: #44ff66; }
      .sub { font-family: monospace; font-size: 14px; fill: #666666; }
      .grid { stroke: #161625; stroke-width: 0.5; }
    </style>
  </defs>
  <!-- Background -->
  <rect class="bg" width="800" height="200" rx="8"/>
  <!-- Subtle grid -->
  <g class="grid" fill="none">
    <line x1="0" y1="20" x2="800" y2="20"/><line x1="0" y1="40" x2="800" y2="40"/>
    <line x1="0" y1="60" x2="800" y2="60"/><line x1="0" y1="80" x2="800" y2="80"/>
    <line x1="0" y1="100" x2="800" y2="100"/><line x1="0" y1="120" x2="800" y2="120"/>
    <line x1="0" y1="140" x2="800" y2="140"/><line x1="0" y1="160" x2="800" y2="160"/>
    <line x1="0" y1="180" x2="800" y2="180"/>
  </g>

  <!-- Stars -->
  <g fill="#ffffff" opacity="0.3">
    <rect x="15" y="12" width="2" height="2"/><rect x="55" y="45" width="2" height="2"/>
    <rect x="95" y="8" width="2" height="2"/><rect x="135" y="55" width="2" height="2"/>
    <rect x="175" y="22" width="2" height="2"/><rect x="215" y="68" width="2" height="2"/>
    <rect x="250" y="15" width="2" height="2"/><rect x="45" y="85" width="2" height="2"/>
    <rect x="110" y="95" width="2" height="2"/><rect x="200" y="105" width="2" height="2"/>
  </g>

  <!-- Enemy formation (pixel art) -->
  <g shape-rendering="crispEdges">
    <!-- Row 1: Squids (purple) -->
    <g fill="#c084fc">
      <!-- Squid 1 -->
      <rect x="40" y="20" width="3" height="3"/><rect x="43" y="20" width="3" height="3"/>
      <rect x="37" y="23" width="3" height="3"/><rect x="40" y="23" width="3" height="3"/><rect x="43" y="23" width="3" height="3"/><rect x="46" y="23" width="3" height="3"/>
      <rect x="34" y="26" width="3" height="3"/><rect x="37" y="26" width="3" height="3"/><rect x="46" y="26" width="3" height="3"/><rect x="49" y="26" width="3" height="3"/>
      <rect x="34" y="29" width="3" height="3"/><rect x="37" y="29" width="3" height="3"/><rect x="40" y="29" width="3" height="3"/><rect x="43" y="29" width="3" height="3"/><rect x="46" y="29" width="3" height="3"/><rect x="49" y="29" width="3" height="3"/>
      <!-- Squid 2 -->
      <rect x="75" y="20" width="3" height="3"/><rect x="78" y="20" width="3" height="3"/>
      <rect x="72" y="23" width="3" height="3"/><rect x="75" y="23" width="3" height="3"/><rect x="78" y="23" width="3" height="3"/><rect x="81" y="23" width="3" height="3"/>
      <rect x="69" y="26" width="3" height="3"/><rect x="72" y="26" width="3" height="3"/><rect x="81" y="26" width="3" height="3"/><rect x="84" y="26" width="3" height="3"/>
      <rect x="69" y="29" width="3" height="3"/><rect x="72" y="29" width="3" height="3"/><rect x="75" y="29" width="3" height="3"/><rect x="78" y="29" width="3" height="3"/><rect x="81" y="29" width="3" height="3"/><rect x="84" y="29" width="3" height="3"/>
      <!-- Squid 3 -->
      <rect x="110" y="20" width="3" height="3"/><rect x="113" y="20" width="3" height="3"/>
      <rect x="107" y="23" width="3" height="3"/><rect x="110" y="23" width="3" height="3"/><rect x="113" y="23" width="3" height="3"/><rect x="116" y="23" width="3" height="3"/>
      <rect x="104" y="26" width="3" height="3"/><rect x="107" y="26" width="3" height="3"/><rect x="116" y="26" width="3" height="3"/><rect x="119" y="26" width="3" height="3"/>
      <rect x="104" y="29" width="3" height="3"/><rect x="107" y="29" width="3" height="3"/><rect x="110" y="29" width="3" height="3"/><rect x="113" y="29" width="3" height="3"/><rect x="116" y="29" width="3" height="3"/><rect x="119" y="29" width="3" height="3"/>
    </g>

    <!-- Row 2-3: Crabs (blue) -->
    <g fill="#44aaff">
      <!-- Crab row 1 -->
      <rect x="37" y="45" width="3" height="3"/><rect x="49" y="45" width="3" height="3"/>
      <rect x="40" y="48" width="3" height="3"/><rect x="43" y="48" width="3" height="3"/>
      <rect x="37" y="51" width="3" height="3"/><rect x="40" y="51" width="3" height="3"/><rect x="43" y="51" width="3" height="3"/><rect x="46" y="51" width="3" height="3"/>
      <rect x="34" y="54" width="3" height="3"/><rect x="37" y="54" width="3" height="3"/><rect x="40" y="54" width="3" height="3"/><rect x="43" y="54" width="3" height="3"/><rect x="46" y="54" width="3" height="3"/><rect x="49" y="54" width="3" height="3"/>

      <rect x="72" y="45" width="3" height="3"/><rect x="84" y="45" width="3" height="3"/>
      <rect x="75" y="48" width="3" height="3"/><rect x="78" y="48" width="3" height="3"/>
      <rect x="72" y="51" width="3" height="3"/><rect x="75" y="51" width="3" height="3"/><rect x="78" y="51" width="3" height="3"/><rect x="81" y="51" width="3" height="3"/>
      <rect x="69" y="54" width="3" height="3"/><rect x="72" y="54" width="3" height="3"/><rect x="75" y="54" width="3" height="3"/><rect x="78" y="54" width="3" height="3"/><rect x="81" y="54" width="3" height="3"/><rect x="84" y="54" width="3" height="3"/>

      <rect x="107" y="45" width="3" height="3"/><rect x="119" y="45" width="3" height="3"/>
      <rect x="110" y="48" width="3" height="3"/><rect x="113" y="48" width="3" height="3"/>
      <rect x="107" y="51" width="3" height="3"/><rect x="110" y="51" width="3" height="3"/><rect x="113" y="51" width="3" height="3"/><rect x="116" y="51" width="3" height="3"/>
      <rect x="104" y="54" width="3" height="3"/><rect x="107" y="54" width="3" height="3"/><rect x="110" y="54" width="3" height="3"/><rect x="113" y="54" width="3" height="3"/><rect x="116" y="54" width="3" height="3"/><rect x="119" y="54" width="3" height="3"/>
    </g>

    <!-- Row 4-5: Octopus (green) -->
    <g fill="#44ff66">
      <rect x="40" y="70" width="3" height="3"/><rect x="43" y="70" width="3" height="3"/>
      <rect x="37" y="73" width="3" height="3"/><rect x="40" y="73" width="3" height="3"/><rect x="43" y="73" width="3" height="3"/><rect x="46" y="73" width="3" height="3"/>
      <rect x="34" y="76" width="3" height="3"/><rect x="37" y="76" width="3" height="3"/><rect x="46" y="76" width="3" height="3"/><rect x="49" y="76" width="3" height="3"/>
      <rect x="34" y="79" width="3" height="3"/><rect x="37" y="79" width="3" height="3"/><rect x="40" y="79" width="3" height="3"/><rect x="43" y="79" width="3" height="3"/><rect x="46" y="79" width="3" height="3"/><rect x="49" y="79" width="3" height="3"/>

      <rect x="75" y="70" width="3" height="3"/><rect x="78" y="70" width="3" height="3"/>
      <rect x="72" y="73" width="3" height="3"/><rect x="75" y="73" width="3" height="3"/><rect x="78" y="73" width="3" height="3"/><rect x="81" y="73" width="3" height="3"/>
      <rect x="69" y="76" width="3" height="3"/><rect x="72" y="76" width="3" height="3"/><rect x="81" y="76" width="3" height="3"/><rect x="84" y="76" width="3" height="3"/>
      <rect x="69" y="79" width="3" height="3"/><rect x="72" y="79" width="3" height="3"/><rect x="75" y="79" width="3" height="3"/><rect x="78" y="79" width="3" height="3"/><rect x="81" y="79" width="3" height="3"/><rect x="84" y="79" width="3" height="3"/>

      <rect x="110" y="70" width="3" height="3"/><rect x="113" y="70" width="3" height="3"/>
      <rect x="107" y="73" width="3" height="3"/><rect x="110" y="73" width="3" height="3"/><rect x="113" y="73" width="3" height="3"/><rect x="116" y="73" width="3" height="3"/>
      <rect x="104" y="76" width="3" height="3"/><rect x="107" y="76" width="3" height="3"/><rect x="116" y="76" width="3" height="3"/><rect x="119" y="76" width="3" height="3"/>
      <rect x="104" y="79" width="3" height="3"/><rect x="107" y="79" width="3" height="3"/><rect x="110" y="79" width="3" height="3"/><rect x="113" y="79" width="3" height="3"/><rect x="116" y="79" width="3" height="3"/><rect x="119" y="79" width="3" height="3"/>
    </g>

    <!-- Player bullet -->
    <rect x="90" y="100" width="3" height="10" fill="#44ff66"/>

    <!-- Player ship -->
    <g fill="#44ff66">
      <rect x="80" y="155" width="3" height="3"/>
      <rect x="83" y="155" width="3" height="3"/>
      <rect x="77" y="158" width="3" height="3"/><rect x="80" y="158" width="3" height="3"/><rect x="83" y="158" width="3" height="3"/><rect x="86" y="158" width="3" height="3"/>
      <rect x="71" y="161" width="3" height="3"/><rect x="74" y="161" width="3" height="3"/><rect x="77" y="161" width="3" height="3"/><rect x="80" y="161" width="3" height="3"/><rect x="83" y="161" width="3" height="3"/><rect x="86" y="161" width="3" height="3"/><rect x="89" y="161" width="3" height="3"/><rect x="92" y="161" width="3" height="3"/>
      <rect x="68" y="164" width="3" height="3"/><rect x="71" y="164" width="3" height="3"/><rect x="74" y="164" width="3" height="3"/><rect x="77" y="164" width="3" height="3"/><rect x="80" y="164" width="3" height="3"/><rect x="83" y="164" width="3" height="3"/><rect x="86" y="164" width="3" height="3"/><rect x="89" y="164" width="3" height="3"/><rect x="92" y="164" width="3" height="3"/><rect x="95" y="164" width="3" height="3"/>
    </g>

    <!-- Enemy bullet -->
    <rect x="115" y="90" width="3" height="10" fill="#ff4444"/>
  </g>

  <!-- Pixel icon from icons.js -->
  <g transform="translate(300, 30)" shape-rendering="crispEdges">
    <rect x="6" y="1.5" width="1.5" height="1.5" fill="#c084fc"/>
    <rect x="13.5" y="1.5" width="1.5" height="1.5" fill="#c084fc"/>
    <rect x="7.5" y="3" width="1.5" height="1.5" fill="#c084fc"/>
    <rect x="12" y="3" width="1.5" height="1.5" fill="#c084fc"/>
    <rect x="6" y="4.5" width="1.5" height="1.5" fill="#c084fc"/>
    <rect x="7.5" y="4.5" width="1.5" height="1.5" fill="#c084fc"/>
    <rect x="9" y="4.5" width="1.5" height="1.5" fill="#c084fc"/>
    <rect x="10.5" y="4.5" width="1.5" height="1.5" fill="#c084fc"/>
    <rect x="12" y="4.5" width="1.5" height="1.5" fill="#c084fc"/>
    <rect x="13.5" y="4.5" width="1.5" height="1.5" fill="#c084fc"/>
    <rect x="4.5" y="6" width="1.5" height="1.5" fill="#c084fc"/>
    <rect x="6" y="6" width="1.5" height="1.5" fill="#c084fc"/>
    <rect x="9" y="6" width="1.5" height="1.5" fill="#c084fc"/>
    <rect x="10.5" y="6" width="1.5" height="1.5" fill="#c084fc"/>
    <rect x="13.5" y="6" width="1.5" height="1.5" fill="#c084fc"/>
    <rect x="15" y="6" width="1.5" height="1.5" fill="#c084fc"/>
    <rect x="3" y="7.5" width="1.5" height="1.5" fill="#c084fc"/>
    <rect x="4.5" y="7.5" width="1.5" height="1.5" fill="#c084fc"/>
    <rect x="6" y="7.5" width="1.5" height="1.5" fill="#c084fc"/>
    <rect x="7.5" y="7.5" width="1.5" height="1.5" fill="#c084fc"/>
    <rect x="9" y="7.5" width="1.5" height="1.5" fill="#c084fc"/>
    <rect x="10.5" y="7.5" width="1.5" height="1.5" fill="#c084fc"/>
    <rect x="12" y="7.5" width="1.5" height="1.5" fill="#c084fc"/>
    <rect x="13.5" y="7.5" width="1.5" height="1.5" fill="#c084fc"/>
    <rect x="15" y="7.5" width="1.5" height="1.5" fill="#c084fc"/>
    <rect x="16.5" y="7.5" width="1.5" height="1.5" fill="#c084fc"/>
    <!-- Player ship mini -->
    <rect x="9" y="16.5" width="1.5" height="1.5" fill="#44ff66"/>
    <rect x="10.5" y="16.5" width="1.5" height="1.5" fill="#44ff66"/>
    <rect x="7.5" y="18" width="1.5" height="1.5" fill="#44ff66"/>
    <rect x="9" y="18" width="1.5" height="1.5" fill="#44ff66"/>
    <rect x="10.5" y="18" width="1.5" height="1.5" fill="#44ff66"/>
    <rect x="12" y="18" width="1.5" height="1.5" fill="#44ff66"/>
    <rect x="6" y="19.5" width="1.5" height="1.5" fill="#44ff66"/>
    <rect x="7.5" y="19.5" width="1.5" height="1.5" fill="#44ff66"/>
    <rect x="9" y="19.5" width="1.5" height="1.5" fill="#44ff66"/>
    <rect x="10.5" y="19.5" width="1.5" height="1.5" fill="#44ff66"/>
    <rect x="12" y="19.5" width="1.5" height="1.5" fill="#44ff66"/>
    <rect x="13.5" y="19.5" width="1.5" height="1.5" fill="#44ff66"/>
    <rect x="9" y="21" width="1.5" height="1.5" fill="#44ff66"/>
    <rect x="10.5" y="21" width="1.5" height="1.5" fill="#44ff66"/>
  </g>

  <!-- Title -->
  <text class="title" x="350" y="85">SPACE</text>
  <text class="title" x="350" y="130">INVADERS</text>
  <text class="sub" x="350" y="155">Shoot · Dodge · Survive</text>

  <!-- Score HUD mock -->
  <g transform="translate(350, 165)">
    <rect width="280" height="26" fill="#12121f" stroke="#2a2a40" stroke-width="2" rx="2"/>
    <text font-family="monospace" font-size="9" fill="#666" x="10" y="17">SCORE</text>
    <text font-family="monospace" font-size="9" fill="#ffd700" x="55" y="17">1830</text>
    <text font-family="monospace" font-size="9" fill="#666" x="110" y="17">LIVES</text>
    <text font-family="monospace" font-size="9" fill="#ffd700" x="155" y="17">3</text>
    <text font-family="monospace" font-size="9" fill="#666" x="190" y="17">WAVE</text>
    <text font-family="monospace" font-size="9" fill="#ffd700" x="230" y="17">2</text>
  </g>

  <!-- Border -->
  <rect width="800" height="200" fill="none" stroke="#2a2a40" stroke-width="2" rx="8"/>
</svg>
