<svg xmlns="http://www.w3.org/2000/svg" viewBox="0 0 440 540" width="440" height="540">
  <rect width="440" height="540" fill="#0a0a16" rx="6"/>

  <!-- HUD bar -->
  <rect x="10" y="8" width="420" height="24" fill="#12121f" stroke="#2a2a40" stroke-width="1" rx="2"/>
  <text font-family="monospace" font-size="10" fill="#666" x="20" y="24">SCORE</text>
  <text font-family="monospace" font-size="10" fill="#ffd700" x="70" y="24">960</text>
  <text font-family="monospace" font-size="10" fill="#666" x="140" y="24">LIVES</text>
  <text font-family="monospace" font-size="10" fill="#ffd700" x="185" y="24">3</text>
  <text font-family="monospace" font-size="10" fill="#666" x="250" y="24">WAVE</text>
  <text font-family="monospace" font-size="10" fill="#ffd700" x="295" y="24">1</text>
  <text font-family="monospace" font-size="10" fill="#666" x="350" y="24">BEST</text>
  <text font-family="monospace" font-size="10" fill="#ffd700" x="390" y="24">2400</text>

  <!-- Enemy formation — 5 rows x 11 cols, some destroyed -->
  <g shape-rendering="crispEdges">
    <!-- Row 0: Squids (purple) — 11 enemies, 2 destroyed -->
    <g fill="#c084fc">
      <!-- Col 0 -->
      <rect x="28" y="60" width="3" height="3"/><rect x="31" y="60" width="3" height="3"/>
      <rect x="25" y="63" width="3" height="3"/><rect x="28" y="63" width="3" height="3"/><rect x="31" y="63" width="3" height="3"/><rect x="34" y="63" width="3" height="3"/>
      <rect x="22" y="66" width="3" height="3"/><rect x="25" y="66" width="3" height="3"/><rect x="34" y="66" width="3" height="3"/><rect x="37" y="66" width="3" height="3"/>
      <rect x="22" y="69" width="3" height="3"/><rect x="25" y="69" width="3" height="3"/><rect x="28" y="69" width="3" height="3"/><rect x="31" y="69" width="3" height="3"/><rect x="34" y="69" width="3" height="3"/><rect x="37" y="69" width="3" height="3"/>
      <!-- Col 1 -->
      <rect x="63" y="60" width="3" height="3"/><rect x="66" y="60" width="3" height="3"/>
      <rect x="60" y="63" width="3" height="3"/><rect x="63" y="63" width="3" height="3"/><rect x="66" y="63" width="3" height="3"/><rect x="69" y="63" width="3" height="3"/>
      <rect x="57" y="66" width="3" height="3"/><rect x="60" y="66" width="3" height="3"/><rect x="69" y="66" width="3" height="3"/><rect x="72" y="66" width="3" height="3"/>
      <rect x="57" y="69" width="3" height="3"/><rect x="60" y="69" width="3" height="3"/><rect x="63" y="69" width="3" height="3"/><rect x="66" y="69" width="3" height="3"/><rect x="69" y="69" width="3" height="3"/><rect x="72" y="69" width="3" height="3"/>
      <!-- Col 2 -->
      <rect x="98" y="60" width="3" height="3"/><rect x="101" y="60" width="3" height="3"/>
      <rect x="95" y="63" width="3" height="3"/><rect x="98" y="63" width="3" height="3"/><rect x="101" y="63" width="3" height="3"/><rect x="104" y="63" width="3" height="3"/>
      <rect x="92" y="66" width="3" height="3"/><rect x="95" y="66" width="3" height="3"/><rect x="104" y="66" width="3" height="3"/><rect x="107" y="66" width="3" height="3"/>
      <rect x="92" y="69" width="3" height="3"/><rect x="95" y="69" width="3" height="3"/><rect x="98" y="69" width="3" height="3"/><rect x="101" y="69" width="3" height="3"/><rect x="104" y="69" width="3" height="3"/><rect x="107" y="69" width="3" height="3"/>
      <!-- Col 3 destroyed -->
      <!-- Col 4 -->
      <rect x="168" y="60" width="3" height="3"/><rect x="171" y="60" width="3" height="3"/>
      <rect x="165" y="63" width="3" height="3"/><rect x="168" y="63" width="3" height="3"/><rect x="171" y="63" width="3" height="3"/><rect x="174" y="63" width="3" height="3"/>
      <rect x="162" y="66" width="3" height="3"/><rect x="165" y="66" width="3" height="3"/><rect x="174" y="66" width="3" height="3"/><rect x="177" y="66" width="3" height="3"/>
      <rect x="162" y="69" width="3" height="3"/><rect x="165" y="69" width="3" height="3"/><rect x="168" y="69" width="3" height="3"/><rect x="171" y="69" width="3" height="3"/><rect x="174" y="69" width="3" height="3"/><rect x="177" y="69" width="3" height="3"/>
      <!-- Col 5 -->
      <rect x="203" y="60" width="3" height="3"/><rect x="206" y="60" width="3" height="3"/>
      <rect x="200" y="63" width="3" height="3"/><rect x="203" y="63" width="3" height="3"/><rect x="206" y="63" width="3" height="3"/><rect x="209" y="63" width="3" height="3"/>
      <rect x="197" y="66" width="3" height="3"/><rect x="200" y="66" width="3" height="3"/><rect x="209" y="66" width="3" height="3"/><rect x="212" y="66" width="3" height="3"/>
      <rect x="197" y="69" width="3" height="3"/><rect x="200" y="69" width="3" height="3"/><rect x="203" y="69" width="3" height="3"/><rect x="206" y="69" width="3" height="3"/><rect x="209" y="69" width="3" height="3"/><rect x="212" y="69" width="3" height="3"/>
      <!-- Col 6 destroyed -->
      <!-- Cols 7-10 -->
      <rect x="273" y="60" width="3" height="3"/><rect x="276" y="60" width="3" height="3"/>
      <rect x="270" y="63" width="3" height="3"/><rect x="273" y="63" width="3" height="3"/><rect x="276" y="63" width="3" height="3"/><rect x="279" y="63" width="3" height="3"/>
      <rect x="267" y="66" width="3" height="3"/><rect x="270" y="66" width="3" height="3"/><rect x="279" y="66" width="3" height="3"/><rect x="282" y="66" width="3" height="3"/>
      <rect x="267" y="69" width="3" height="3"/><rect x="270" y="69" width="3" height="3"/><rect x="273" y="69" width="3" height="3"/><rect x="276" y="69" width="3" height="3"/><rect x="279" y="69" width="3" height="3"/><rect x="282" y="69" width="3" height="3"/>

      <rect x="308" y="60" width="3" height="3"/><rect x="311" y="60" width="3" height="3"/>
      <rect x="305" y="63" width="3" height="3"/><rect x="308" y="63" width="3" height="3"/><rect x="311" y="63" width="3" height="3"/><rect x="314" y="63" width="3" height="3"/>
      <rect x="302" y="66" width="3" height="3"/><rect x="305" y="66" width="3" height="3"/><rect x="314" y="66" width="3" height="3"/><rect x="317" y="66" width="3" height="3"/>
      <rect x="302" y="69" width="3" height="3"/><rect x="305" y="69" width="3" height="3"/><rect x="308" y="69" width="3" height="3"/><rect x="311" y="69" width="3" height="3"/><rect x="314" y="69" width="3" height="3"/><rect x="317" y="69" width="3" height="3"/>

      <rect x="343" y="60" width="3" height="3"/><rect x="346" y="60" width="3" height="3"/>
      <rect x="340" y="63" width="3" height="3"/><rect x="343" y="63" width="3" height="3"/><rect x="346" y="63" width="3" height="3"/><rect x="349" y="63" width="3" height="3"/>
      <rect x="337" y="66" width="3" height="3"/><rect x="340" y="66" width="3" height="3"/><rect x="349" y="66" width="3" height="3"/><rect x="352" y="66" width="3" height="3"/>
      <rect x="337" y="69" width="3" height="3"/><rect x="340" y="69" width="3" height="3"/><rect x="343" y="69" width="3" height="3"/><rect x="346" y="69" width="3" height="3"/><rect x="349" y="69" width="3" height="3"/><rect x="352" y="69" width="3" height="3"/>

      <rect x="378" y="60" width="3" height="3"/><rect x="381" y="60" width="3" height="3"/>
      <rect x="375" y="63" width="3" height="3"/><rect x="378" y="63" width="3" height="3"/><rect x="381" y="63" width="3" height="3"/><rect x="384" y="63" width="3" height="3"/>
      <rect x="372" y="66" width="3" height="3"/><rect x="375" y="66" width="3" height="3"/><rect x="384" y="66" width="3" height="3"/><rect x="387" y="66" width="3" height="3"/>
      <rect x="372" y="69" width="3" height="3"/><rect x="375" y="69" width="3" height="3"/><rect x="378" y="69" width="3" height="3"/><rect x="381" y="69" width="3" height="3"/><rect x="384" y="69" width="3" height="3"/><rect x="387" y="69" width="3" height="3"/>
    </g>

    <!-- Simplified crab rows (blue) -->
    <g fill="#44aaff">
      <!-- Row of blue rectangles representing crab formation -->
      <rect x="22" y="90" width="18" height="14" rx="1" opacity="0.8"/>
      <rect x="57" y="90" width="18" height="14" rx="1" opacity="0.8"/>
      <rect x="92" y="90" width="18" height="14" rx="1" opacity="0.8"/>
      <rect x="127" y="90" width="18" height="14" rx="1" opacity="0.8"/>
      <rect x="162" y="90" width="18" height="14" rx="1" opacity="0.8"/>
      <rect x="197" y="90" width="18" height="14" rx="1" opacity="0.8"/>
      <rect x="232" y="90" width="18" height="14" rx="1" opacity="0.8"/>
      <rect x="267" y="90" width="18" height="14" rx="1" opacity="0.8"/>
      <rect x="302" y="90" width="18" height="14" rx="1" opacity="0.8"/>
      <rect x="337" y="90" width="18" height="14" rx="1" opacity="0.8"/>
      <rect x="372" y="90" width="18" height="14" rx="1" opacity="0.8"/>

      <rect x="22" y="115" width="18" height="14" rx="1" opacity="0.8"/>
      <rect x="57" y="115" width="18" height="14" rx="1" opacity="0.8"/>
      <rect x="92" y="115" width="18" height="14" rx="1" opacity="0.8"/>
      <rect x="127" y="115" width="18" height="14" rx="1" opacity="0.8"/>
      <rect x="162" y="115" width="18" height="14" rx="1" opacity="0.8"/>
      <rect x="197" y="115" width="18" height="14" rx="1" opacity="0.8"/>
      <rect x="232" y="115" width="18" height="14" rx="1" opacity="0.8"/>
      <rect x="267" y="115" width="18" height="14" rx="1" opacity="0.8"/>
      <rect x="302" y="115" width="18" height="14" rx="1" opacity="0.8"/>
      <rect x="337" y="115" width="18" height="14" rx="1" opacity="0.8"/>
      <rect x="372" y="115" width="18" height="14" rx="1" opacity="0.8"/>
    </g>

    <!-- Octopus rows (green) — some destroyed in bottom rows -->
    <g fill="#44ff66">
      <rect x="22" y="140" width="18" height="14" rx="1" opacity="0.8"/>
      <rect x="57" y="140" width="18" height="14" rx="1" opacity="0.8"/>
      <rect x="92" y="140" width="18" height="14" rx="1" opacity="0.8"/>
      <!-- col 3 destroyed -->
      <rect x="162" y="140" width="18" height="14" rx="1" opacity="0.8"/>
      <rect x="197" y="140" width="18" height="14" rx="1" opacity="0.8"/>
      <rect x="232" y="140" width="18" height="14" rx="1" opacity="0.8"/>
      <rect x="267" y="140" width="18" height="14" rx="1" opacity="0.8"/>
      <rect x="302" y="140" width="18" height="14" rx="1" opacity="0.8"/>
      <!-- col 9 destroyed -->
      <rect x="372" y="140" width="18" height="14" rx="1" opacity="0.8"/>

      <rect x="22" y="165" width="18" height="14" rx="1" opacity="0.8"/>
      <!-- col 1 destroyed -->
      <rect x="92" y="165" width="18" height="14" rx="1" opacity="0.8"/>
      <rect x="127" y="165" width="18" height="14" rx="1" opacity="0.8"/>
      <rect x="162" y="165" width="18" height="14" rx="1" opacity="0.8"/>
      <!-- col 5 destroyed -->
      <rect x="232" y="165" width="18" height="14" rx="1" opacity="0.8"/>
      <rect x="267" y="165" width="18" height="14" rx="1" opacity="0.8"/>
      <rect x="302" y="165" width="18" height="14" rx="1" opacity="0.8"/>
      <rect x="337" y="165" width="18" height="14" rx="1" opacity="0.8"/>
      <!-- col 10 destroyed -->
    </g>

    <!-- Player bullet -->
    <rect x="218" y="250" width="3" height="10" fill="#44ff66"/>

    <!-- Enemy bullets -->
    <rect x="100" y="300" width="3" height="10" fill="#ff4444"/>
    <rect x="310" y="350" width="3" height="10" fill="#ff4444"/>

    <!-- Explosion particles (where enemy was destroyed) -->
    <g fill="#44ff66" opacity="0.7">
      <rect x="130" y="162" width="2" height="2"/><rect x="135" y="158" width="2" height="2"/>
      <rect x="128" y="170" width="2" height="2"/><rect x="140" y="165" width="2" height="2"/>
      <rect x="133" y="175" width="2" height="2"/>
    </g>

    <!-- Player ship at bottom -->
    <g fill="#44ff66">
      <rect x="208" y="470" width="4" height="3"/>
      <rect x="204" y="473" width="12" height="3"/>
      <rect x="198" y="476" width="24" height="3"/>
      <rect x="194" y="479" width="32" height="3"/>
      <rect x="190" y="482" width="40" height="6"/>
    </g>
    <!-- Player highlight -->
    <g fill="#88ffaa" opacity="0.3">
      <rect x="208" y="470" width="4" height="3"/>
      <rect x="204" y="473" width="12" height="3"/>
    </g>
  </g>

  <!-- Ground line -->
  <rect x="10" y="500" width="420" height="2" fill="#44ff66"/>

  <!-- Lives indicator -->
  <g fill="#44ff66" shape-rendering="crispEdges">
    <rect x="15" y="510" width="2" height="2"/><rect x="13" y="512" width="6" height="2"/><rect x="11" y="514" width="10" height="3"/>
    <rect x="30" y="510" width="2" height="2"/><rect x="28" y="512" width="6" height="2"/><rect x="26" y="514" width="10" height="3"/>
  </g>
  <text font-family="monospace" font-size="9" fill="#666" x="380" y="520">WAVE 1</text>

  <rect width="440" height="540" fill="none" stroke="#2a2a40" stroke-width="2" rx="6"/>
</svg>
