<svg xmlns="http://www.w3.org/2000/svg" viewBox="0 0 600 100" width="600" height="100">
  <rect width="600" height="100" fill="#0a0a16" rx="8"/>
  <rect x="2" y="2" width="596" height="96" fill="none" stroke="#2a2a40" stroke-width="2" rx="8"/>

  <g transform="translate(30,25)">
    <rect x="0" y="0" width="60" height="40" fill="#44ffdd" rx="4"/>
    <text x="30" y="55" fill="#666" font-family="monospace" font-size="8" text-anchor="middle">Satellite</text>

    <rect x="80" y="0" width="60" height="40" fill="#ff8844" rx="4"/>
    <text x="110" y="55" fill="#666" font-family="monospace" font-size="8" text-anchor="middle">Planet 1</text>

    <rect x="160" y="0" width="60" height="40" fill="#44aaff" rx="4"/>
    <text x="190" y="55" fill="#666" font-family="monospace" font-size="8" text-anchor="middle">Planet 2</text>

    <rect x="240" y="0" width="60" height="40" fill="#c084fc" rx="4"/>
    <text x="270" y="55" fill="#666" font-family="monospace" font-size="8" text-anchor="middle">Planet 3</text>

    <rect x="320" y="0" width="60" height="40" fill="#ffd700" rx="4"/>
    <text x="350" y="55" fill="#666" font-family="monospace" font-size="8" text-anchor="middle">Target</text>

    <rect x="400" y="0" width="60" height="40" fill="#0a0a16" stroke="#2a2a40" stroke-width="1" rx="4"/>
    <text x="430" y="55" fill="#666" font-family="monospace" font-size="8" text-anchor="middle">Space BG</text>

    <rect x="480" y="0" width="60" height="40" fill="#ff8844" rx="4" opacity="0.6"/>
    <text x="510" y="55" fill="#666" font-family="monospace" font-size="8" text-anchor="middle">Thrust</text>
  </g>
</svg>
