<svg xmlns="http://www.w3.org/2000/svg" viewBox="0 0 700 180" width="700" height="180">
  <rect width="700" height="180" fill="#0a0a16" rx="8"/>
  <rect x="2" y="2" width="696" height="176" fill="none" stroke="#2a2a40" stroke-width="2" rx="8"/>

  <rect x="30" y="70" width="100" height="40" fill="#1a1a2e" stroke="#44ffdd" stroke-width="2" rx="6"/>
  <text x="80" y="95" fill="#44ffdd" font-family="monospace" font-weight="bold" font-size="11" text-anchor="middle">IDLE</text>

  <rect x="180" y="70" width="100" height="40" fill="#1a1a2e" stroke="#44ff66" stroke-width="2" rx="6"/>
  <text x="230" y="95" fill="#44ff66" font-family="monospace" font-weight="bold" font-size="11" text-anchor="middle">AIMING</text>

  <rect x="330" y="70" width="100" height="40" fill="#1a1a2e" stroke="#ff8844" stroke-width="2" rx="6"/>
  <text x="380" y="95" fill="#ff8844" font-family="monospace" font-weight="bold" font-size="11" text-anchor="middle">FLYING</text>

  <rect x="530" y="30" width="100" height="40" fill="#1a1a2e" stroke="#ffd700" stroke-width="2" rx="6"/>
  <text x="580" y="55" fill="#ffd700" font-family="monospace" font-weight="bold" font-size="11" text-anchor="middle">ORBITING</text>

  <rect x="530" y="110" width="100" height="40" fill="#1a1a2e" stroke="#ff4444" stroke-width="2" rx="6"/>
  <text x="580" y="135" fill="#ff4444" font-family="monospace" font-weight="bold" font-size="11" text-anchor="middle">CRASHED</text>

  <line x1="130" y1="90" x2="175" y2="90" stroke="#666" stroke-width="1.5"/>
  <text x="152" y="82" fill="#888" font-family="monospace" font-size="8" text-anchor="middle">Start</text>

  <line x1="280" y1="90" x2="325" y2="90" stroke="#666" stroke-width="1.5"/>
  <text x="302" y="82" fill="#888" font-family="monospace" font-size="8" text-anchor="middle">Launch</text>

  <path d="M430,80 Q480,50 525,50" fill="none" stroke="#666" stroke-width="1.5"/>
  <text x="478" y="45" fill="#888" font-family="monospace" font-size="8" text-anchor="middle">In zone</text>

  <path d="M430,100 Q480,130 525,130" fill="none" stroke="#666" stroke-width="1.5"/>
  <text x="478" y="145" fill="#888" font-family="monospace" font-size="8" text-anchor="middle">Collision</text>
</svg>
