<svg xmlns="http://www.w3.org/2000/svg" viewBox="0 0 700 180" width="700" height="180">
  <rect width="700" height="180" fill="#0a0a16" rx="8"/>
  <rect x="2" y="2" width="696" height="176" fill="none" stroke="#2a2a40" stroke-width="2" rx="8"/>

  <rect x="30" y="70" width="100" height="40" fill="#1a1a2e" stroke="#ffd700" stroke-width="2" rx="6"/>
  <text x="80" y="95" fill="#ffd700" font-family="monospace" font-weight="bold" font-size="11" text-anchor="middle">IDLE</text>

  <rect x="190" y="70" width="100" height="40" fill="#1a1a2e" stroke="#44ff66" stroke-width="2" rx="6"/>
  <text x="240" y="95" fill="#44ff66" font-family="monospace" font-weight="bold" font-size="11" text-anchor="middle">PLAYING</text>

  <rect x="350" y="70" width="100" height="40" fill="#1a1a2e" stroke="#ff8844" stroke-width="2" rx="6"/>
  <text x="400" y="95" fill="#ff8844" font-family="monospace" font-weight="bold" font-size="11" text-anchor="middle">PAUSED</text>

  <rect x="530" y="70" width="100" height="40" fill="#1a1a2e" stroke="#ffd700" stroke-width="2" rx="6"/>
  <text x="580" y="95" fill="#ffd700" font-family="monospace" font-weight="bold" font-size="11" text-anchor="middle">WIN</text>

  <line x1="130" y1="90" x2="185" y2="90" stroke="#666" stroke-width="1.5"/>
  <text x="157" y="82" fill="#888" font-family="monospace" font-size="8" text-anchor="middle">Start</text>

  <line x1="290" y1="80" x2="345" y2="80" stroke="#666" stroke-width="1.5"/>
  <text x="317" y="72" fill="#888" font-family="monospace" font-size="8" text-anchor="middle">Esc</text>

  <line x1="345" y1="100" x2="290" y2="100" stroke="#666" stroke-width="1.5"/>
  <text x="317" y="118" fill="#888" font-family="monospace" font-size="8" text-anchor="middle">Resume</text>

  <path d="M290,85 Q420,40 525,85" fill="none" stroke="#666" stroke-width="1.5" stroke-dasharray="4,3"/>
  <text x="410" y="50" fill="#888" font-family="monospace" font-size="8" text-anchor="middle">All levels done</text>

  <!-- Level loop -->
  <path d="M240,70 C240,45 240,45 240,70" fill="none" stroke="#666" stroke-width="1.5"/>
  <text x="240" y="35" fill="#888" font-family="monospace" font-size="8" text-anchor="middle">Next level</text>
</svg>
