<svg xmlns="http://www.w3.org/2000/svg" viewBox="0 0 420 520" width="420" height="520">
  <defs>
    <style>text{font-family:monospace;}</style>
  </defs>
  <rect width="420" height="520" fill="#0a0a16" rx="6"/>

  <!-- HUD -->
  <g transform="translate(20, 15)">
    <rect width="380" height="28" fill="#12121f" stroke="#2a2a40" stroke-width="1" rx="3"/>
    <text fill="#666" font-size="9" x="10" y="18">MOVES</text>
    <text fill="#ffd700" font-size="10" x="58" y="18" font-weight="bold">12/25</text>
    <text fill="#666" font-size="9" x="130" y="18">CELLS</text>
    <text fill="#ffd700" font-size="10" x="172" y="18" font-weight="bold">118/196</text>
    <text fill="#666" font-size="9" x="270" y="18">STREAK</text>
    <text fill="#ffd700" font-size="10" x="325" y="18" font-weight="bold">2</text>
  </g>

  <!-- Progress bar -->
  <g transform="translate(20, 52)">
    <rect width="380" height="8" fill="#1a1a2e" rx="4" stroke="#2a2a40" stroke-width="1"/>
    <rect width="228" height="8" fill="#ffd700" rx="4"/>
  </g>

  <!-- 14x14 Grid — mid-game state with territory flooding from top-left -->
  <g transform="translate(20, 68)" shape-rendering="crispEdges">
    <!-- Row 0: territory (blue) expanding -->
    <rect x="0" y="0" width="26" height="26" fill="#44aaff" rx="2"/>
    <rect x="28" y="0" width="26" height="26" fill="#44aaff" rx="2"/>
    <rect x="56" y="0" width="26" height="26" fill="#44aaff" rx="2"/>
    <rect x="84" y="0" width="26" height="26" fill="#44aaff" rx="2"/>
    <rect x="112" y="0" width="26" height="26" fill="#44aaff" rx="2"/>
    <rect x="140" y="0" width="26" height="26" fill="#44aaff" rx="2"/>
    <rect x="168" y="0" width="26" height="26" fill="#44aaff" rx="2"/>
    <rect x="196" y="0" width="26" height="26" fill="#44aaff" rx="2"/>
    <rect x="224" y="0" width="26" height="26" fill="#44aaff" rx="2"/>
    <rect x="252" y="0" width="26" height="26" fill="#ff4444" rx="2"/>
    <rect x="280" y="0" width="26" height="26" fill="#ff4444" rx="2"/>
    <rect x="308" y="0" width="26" height="26" fill="#c084fc" rx="2"/>
    <rect x="336" y="0" width="26" height="26" fill="#ffd700" rx="2"/>
    <rect x="354" y="0" width="26" height="26" fill="#ffd700" rx="2"/>

    <!-- Row 1 -->
    <rect x="0" y="28" width="26" height="26" fill="#44aaff" rx="2"/>
    <rect x="28" y="28" width="26" height="26" fill="#44aaff" rx="2"/>
    <rect x="56" y="28" width="26" height="26" fill="#44aaff" rx="2"/>
    <rect x="84" y="28" width="26" height="26" fill="#44aaff" rx="2"/>
    <rect x="112" y="28" width="26" height="26" fill="#44aaff" rx="2"/>
    <rect x="140" y="28" width="26" height="26" fill="#44aaff" rx="2"/>
    <rect x="168" y="28" width="26" height="26" fill="#44aaff" rx="2"/>
    <rect x="196" y="28" width="26" height="26" fill="#44aaff" rx="2"/>
    <rect x="224" y="28" width="26" height="26" fill="#ff8844" rx="2"/>
    <rect x="252" y="28" width="26" height="26" fill="#ff4444" rx="2"/>
    <rect x="280" y="28" width="26" height="26" fill="#c084fc" rx="2"/>
    <rect x="308" y="28" width="26" height="26" fill="#c084fc" rx="2"/>
    <rect x="336" y="28" width="26" height="26" fill="#ffd700" rx="2"/>
    <rect x="354" y="28" width="26" height="26" fill="#44ff66" rx="2"/>

    <!-- Row 2 -->
    <rect x="0" y="56" width="26" height="26" fill="#44aaff" rx="2"/>
    <rect x="28" y="56" width="26" height="26" fill="#44aaff" rx="2"/>
    <rect x="56" y="56" width="26" height="26" fill="#44aaff" rx="2"/>
    <rect x="84" y="56" width="26" height="26" fill="#44aaff" rx="2"/>
    <rect x="112" y="56" width="26" height="26" fill="#44aaff" rx="2"/>
    <rect x="140" y="56" width="26" height="26" fill="#44aaff" rx="2"/>
    <rect x="168" y="56" width="26" height="26" fill="#ff8844" rx="2"/>
    <rect x="196" y="56" width="26" height="26" fill="#ff8844" rx="2"/>
    <rect x="224" y="56" width="26" height="26" fill="#ff8844" rx="2"/>
    <rect x="252" y="56" width="26" height="26" fill="#44ff66" rx="2"/>
    <rect x="280" y="56" width="26" height="26" fill="#44ff66" rx="2"/>
    <rect x="308" y="56" width="26" height="26" fill="#ffd700" rx="2"/>
    <rect x="336" y="56" width="26" height="26" fill="#ffd700" rx="2"/>
    <rect x="354" y="56" width="26" height="26" fill="#44ff66" rx="2"/>

    <!-- Row 3 -->
    <rect x="0" y="84" width="26" height="26" fill="#44aaff" rx="2"/>
    <rect x="28" y="84" width="26" height="26" fill="#44aaff" rx="2"/>
    <rect x="56" y="84" width="26" height="26" fill="#44aaff" rx="2"/>
    <rect x="84" y="84" width="26" height="26" fill="#44aaff" rx="2"/>
    <rect x="112" y="84" width="26" height="26" fill="#44aaff" rx="2"/>
    <rect x="140" y="84" width="26" height="26" fill="#c084fc" rx="2"/>
    <rect x="168" y="84" width="26" height="26" fill="#c084fc" rx="2"/>
    <rect x="196" y="84" width="26" height="26" fill="#ff4444" rx="2"/>
    <rect x="224" y="84" width="26" height="26" fill="#ff4444" rx="2"/>
    <rect x="252" y="84" width="26" height="26" fill="#44ff66" rx="2"/>
    <rect x="280" y="84" width="26" height="26" fill="#ffd700" rx="2"/>
    <rect x="308" y="84" width="26" height="26" fill="#ffd700" rx="2"/>
    <rect x="336" y="84" width="26" height="26" fill="#ff8844" rx="2"/>
    <rect x="354" y="84" width="26" height="26" fill="#ff8844" rx="2"/>

    <!-- Row 4 -->
    <rect x="0" y="112" width="26" height="26" fill="#44aaff" rx="2"/>
    <rect x="28" y="112" width="26" height="26" fill="#44aaff" rx="2"/>
    <rect x="56" y="112" width="26" height="26" fill="#44aaff" rx="2"/>
    <rect x="84" y="112" width="26" height="26" fill="#44aaff" rx="2"/>
    <rect x="112" y="112" width="26" height="26" fill="#c084fc" rx="2"/>
    <rect x="140" y="112" width="26" height="26" fill="#c084fc" rx="2"/>
    <rect x="168" y="112" width="26" height="26" fill="#ff4444" rx="2"/>
    <rect x="196" y="112" width="26" height="26" fill="#ff4444" rx="2"/>
    <rect x="224" y="112" width="26" height="26" fill="#ffd700" rx="2"/>
    <rect x="252" y="112" width="26" height="26" fill="#ffd700" rx="2"/>
    <rect x="280" y="112" width="26" height="26" fill="#44ff66" rx="2"/>
    <rect x="308" y="112" width="26" height="26" fill="#44ff66" rx="2"/>
    <rect x="336" y="112" width="26" height="26" fill="#ff8844" rx="2"/>
    <rect x="354" y="112" width="26" height="26" fill="#c084fc" rx="2"/>

    <!-- Row 5 -->
    <rect x="0" y="140" width="26" height="26" fill="#44aaff" rx="2"/>
    <rect x="28" y="140" width="26" height="26" fill="#44aaff" rx="2"/>
    <rect x="56" y="140" width="26" height="26" fill="#44aaff" rx="2"/>
    <rect x="84" y="140" width="26" height="26" fill="#ffd700" rx="2"/>
    <rect x="112" y="140" width="26" height="26" fill="#ffd700" rx="2"/>
    <rect x="140" y="140" width="26" height="26" fill="#ff4444" rx="2"/>
    <rect x="168" y="140" width="26" height="26" fill="#ff4444" rx="2"/>
    <rect x="196" y="140" width="26" height="26" fill="#44ff66" rx="2"/>
    <rect x="224" y="140" width="26" height="26" fill="#44ff66" rx="2"/>
    <rect x="252" y="140" width="26" height="26" fill="#c084fc" rx="2"/>
    <rect x="280" y="140" width="26" height="26" fill="#c084fc" rx="2"/>
    <rect x="308" y="140" width="26" height="26" fill="#ff8844" rx="2"/>
    <rect x="336" y="140" width="26" height="26" fill="#ff8844" rx="2"/>
    <rect x="354" y="140" width="26" height="26" fill="#ffd700" rx="2"/>

    <!-- Rows 6-13: remaining uncontrolled territory -->
    <!-- Row 6 -->
    <rect x="0" y="168" width="26" height="26" fill="#44aaff" rx="2"/>
    <rect x="28" y="168" width="26" height="26" fill="#ffd700" rx="2"/>
    <rect x="56" y="168" width="26" height="26" fill="#ffd700" rx="2"/>
    <rect x="84" y="168" width="26" height="26" fill="#ffd700" rx="2"/>
    <rect x="112" y="168" width="26" height="26" fill="#ff8844" rx="2"/>
    <rect x="140" y="168" width="26" height="26" fill="#ff8844" rx="2"/>
    <rect x="168" y="168" width="26" height="26" fill="#44ff66" rx="2"/>
    <rect x="196" y="168" width="26" height="26" fill="#44ff66" rx="2"/>
    <rect x="224" y="168" width="26" height="26" fill="#ff4444" rx="2"/>
    <rect x="252" y="168" width="26" height="26" fill="#ff4444" rx="2"/>
    <rect x="280" y="168" width="26" height="26" fill="#c084fc" rx="2"/>
    <rect x="308" y="168" width="26" height="26" fill="#44aaff" rx="2"/>
    <rect x="336" y="168" width="26" height="26" fill="#44aaff" rx="2"/>
    <rect x="354" y="168" width="26" height="26" fill="#ff4444" rx="2"/>

    <!-- Row 7 -->
    <rect x="0" y="196" width="26" height="26" fill="#c084fc" rx="2"/>
    <rect x="28" y="196" width="26" height="26" fill="#c084fc" rx="2"/>
    <rect x="56" y="196" width="26" height="26" fill="#ff4444" rx="2"/>
    <rect x="84" y="196" width="26" height="26" fill="#ff4444" rx="2"/>
    <rect x="112" y="196" width="26" height="26" fill="#ff8844" rx="2"/>
    <rect x="140" y="196" width="26" height="26" fill="#44ff66" rx="2"/>
    <rect x="168" y="196" width="26" height="26" fill="#44ff66" rx="2"/>
    <rect x="196" y="196" width="26" height="26" fill="#ffd700" rx="2"/>
    <rect x="224" y="196" width="26" height="26" fill="#ffd700" rx="2"/>
    <rect x="252" y="196" width="26" height="26" fill="#44aaff" rx="2"/>
    <rect x="280" y="196" width="26" height="26" fill="#44aaff" rx="2"/>
    <rect x="308" y="196" width="26" height="26" fill="#ff8844" rx="2"/>
    <rect x="336" y="196" width="26" height="26" fill="#ff8844" rx="2"/>
    <rect x="354" y="196" width="26" height="26" fill="#c084fc" rx="2"/>

    <!-- Rows 8-13 abbreviated with varied colors -->
    <!-- Row 8 -->
    <rect x="0" y="224" width="26" height="26" fill="#c084fc" rx="2"/>
    <rect x="28" y="224" width="26" height="26" fill="#ff8844" rx="2"/>
    <rect x="56" y="224" width="26" height="26" fill="#ff8844" rx="2"/>
    <rect x="84" y="224" width="26" height="26" fill="#44ff66" rx="2"/>
    <rect x="112" y="224" width="26" height="26" fill="#44ff66" rx="2"/>
    <rect x="140" y="224" width="26" height="26" fill="#ffd700" rx="2"/>
    <rect x="168" y="224" width="26" height="26" fill="#ffd700" rx="2"/>
    <rect x="196" y="224" width="26" height="26" fill="#ff4444" rx="2"/>
    <rect x="224" y="224" width="26" height="26" fill="#ff4444" rx="2"/>
    <rect x="252" y="224" width="26" height="26" fill="#c084fc" rx="2"/>
    <rect x="280" y="224" width="26" height="26" fill="#44ff66" rx="2"/>
    <rect x="308" y="224" width="26" height="26" fill="#44ff66" rx="2"/>
    <rect x="336" y="224" width="26" height="26" fill="#ffd700" rx="2"/>
    <rect x="354" y="224" width="26" height="26" fill="#ffd700" rx="2"/>

    <!-- Row 9 -->
    <rect x="0" y="252" width="26" height="26" fill="#ff4444" rx="2"/>
    <rect x="28" y="252" width="26" height="26" fill="#ff4444" rx="2"/>
    <rect x="56" y="252" width="26" height="26" fill="#44aaff" rx="2"/>
    <rect x="84" y="252" width="26" height="26" fill="#44aaff" rx="2"/>
    <rect x="112" y="252" width="26" height="26" fill="#c084fc" rx="2"/>
    <rect x="140" y="252" width="26" height="26" fill="#c084fc" rx="2"/>
    <rect x="168" y="252" width="26" height="26" fill="#ff8844" rx="2"/>
    <rect x="196" y="252" width="26" height="26" fill="#ff8844" rx="2"/>
    <rect x="224" y="252" width="26" height="26" fill="#44ff66" rx="2"/>
    <rect x="252" y="252" width="26" height="26" fill="#44ff66" rx="2"/>
    <rect x="280" y="252" width="26" height="26" fill="#ffd700" rx="2"/>
    <rect x="308" y="252" width="26" height="26" fill="#ff4444" rx="2"/>
    <rect x="336" y="252" width="26" height="26" fill="#ff4444" rx="2"/>
    <rect x="354" y="252" width="26" height="26" fill="#44aaff" rx="2"/>

    <!-- Row 10-13 -->
    <rect x="0" y="280" width="26" height="26" fill="#ffd700" rx="2"/>
    <rect x="28" y="280" width="26" height="26" fill="#ffd700" rx="2"/>
    <rect x="56" y="280" width="26" height="26" fill="#44ff66" rx="2"/>
    <rect x="84" y="280" width="26" height="26" fill="#ff8844" rx="2"/>
    <rect x="112" y="280" width="26" height="26" fill="#ff8844" rx="2"/>
    <rect x="140" y="280" width="26" height="26" fill="#ff4444" rx="2"/>
    <rect x="168" y="280" width="26" height="26" fill="#44aaff" rx="2"/>
    <rect x="196" y="280" width="26" height="26" fill="#44aaff" rx="2"/>
    <rect x="224" y="280" width="26" height="26" fill="#c084fc" rx="2"/>
    <rect x="252" y="280" width="26" height="26" fill="#c084fc" rx="2"/>
    <rect x="280" y="280" width="26" height="26" fill="#ff8844" rx="2"/>
    <rect x="308" y="280" width="26" height="26" fill="#44ff66" rx="2"/>
    <rect x="336" y="280" width="26" height="26" fill="#44ff66" rx="2"/>
    <rect x="354" y="280" width="26" height="26" fill="#ff4444" rx="2"/>

    <rect x="0" y="308" width="26" height="26" fill="#44ff66" rx="2"/>
    <rect x="28" y="308" width="26" height="26" fill="#44ff66" rx="2"/>
    <rect x="56" y="308" width="26" height="26" fill="#c084fc" rx="2"/>
    <rect x="84" y="308" width="26" height="26" fill="#c084fc" rx="2"/>
    <rect x="112" y="308" width="26" height="26" fill="#ffd700" rx="2"/>
    <rect x="140" y="308" width="26" height="26" fill="#ffd700" rx="2"/>
    <rect x="168" y="308" width="26" height="26" fill="#ff4444" rx="2"/>
    <rect x="196" y="308" width="26" height="26" fill="#ff4444" rx="2"/>
    <rect x="224" y="308" width="26" height="26" fill="#ff8844" rx="2"/>
    <rect x="252" y="308" width="26" height="26" fill="#ff8844" rx="2"/>
    <rect x="280" y="308" width="26" height="26" fill="#44aaff" rx="2"/>
    <rect x="308" y="308" width="26" height="26" fill="#44aaff" rx="2"/>
    <rect x="336" y="308" width="26" height="26" fill="#ffd700" rx="2"/>
    <rect x="354" y="308" width="26" height="26" fill="#c084fc" rx="2"/>

    <rect x="0" y="336" width="26" height="26" fill="#ff8844" rx="2"/>
    <rect x="28" y="336" width="26" height="26" fill="#ff4444" rx="2"/>
    <rect x="56" y="336" width="26" height="26" fill="#ff4444" rx="2"/>
    <rect x="84" y="336" width="26" height="26" fill="#44aaff" rx="2"/>
    <rect x="112" y="336" width="26" height="26" fill="#44aaff" rx="2"/>
    <rect x="140" y="336" width="26" height="26" fill="#44ff66" rx="2"/>
    <rect x="168" y="336" width="26" height="26" fill="#44ff66" rx="2"/>
    <rect x="196" y="336" width="26" height="26" fill="#c084fc" rx="2"/>
    <rect x="224" y="336" width="26" height="26" fill="#c084fc" rx="2"/>
    <rect x="252" y="336" width="26" height="26" fill="#ffd700" rx="2"/>
    <rect x="280" y="336" width="26" height="26" fill="#ffd700" rx="2"/>
    <rect x="308" y="336" width="26" height="26" fill="#ff8844" rx="2"/>
    <rect x="336" y="336" width="26" height="26" fill="#ff4444" rx="2"/>
    <rect x="354" y="336" width="26" height="26" fill="#ff4444" rx="2"/>

    <rect x="0" y="364" width="26" height="26" fill="#ff8844" rx="2"/>
    <rect x="28" y="364" width="26" height="26" fill="#ff8844" rx="2"/>
    <rect x="56" y="364" width="26" height="26" fill="#ffd700" rx="2"/>
    <rect x="84" y="364" width="26" height="26" fill="#ffd700" rx="2"/>
    <rect x="112" y="364" width="26" height="26" fill="#ff4444" rx="2"/>
    <rect x="140" y="364" width="26" height="26" fill="#ff4444" rx="2"/>
    <rect x="168" y="364" width="26" height="26" fill="#44aaff" rx="2"/>
    <rect x="196" y="364" width="26" height="26" fill="#44aaff" rx="2"/>
    <rect x="224" y="364" width="26" height="26" fill="#44ff66" rx="2"/>
    <rect x="252" y="364" width="26" height="26" fill="#44ff66" rx="2"/>
    <rect x="280" y="364" width="26" height="26" fill="#c084fc" rx="2"/>
    <rect x="308" y="364" width="26" height="26" fill="#c084fc" rx="2"/>
    <rect x="336" y="364" width="26" height="26" fill="#44aaff" rx="2"/>
    <rect x="354" y="364" width="26" height="26" fill="#ff8844" rx="2"/>
  </g>

  <!-- Color picker at bottom -->
  <g transform="translate(95, 470)">
    <rect x="0" y="0" width="34" height="34" fill="#ff4444" rx="6" stroke="#fff" stroke-width="1" opacity="0.3"/>
    <rect x="40" y="0" width="34" height="34" fill="#ff8844" rx="6"/>
    <rect x="80" y="0" width="34" height="34" fill="#ffd700" rx="6"/>
    <rect x="120" y="0" width="34" height="34" fill="#44ff66" rx="6"/>
    <rect x="160" y="0" width="34" height="34" fill="#44aaff" rx="6" stroke="#fff" stroke-width="2"/>
    <rect x="200" y="0" width="34" height="34" fill="#c084fc" rx="6"/>
    <text fill="#666" font-size="8" x="165" y="46" text-anchor="middle">current</text>
  </g>

  <rect width="420" height="520" fill="none" stroke="#2a2a40" stroke-width="2" rx="6"/>
</svg>
