<svg xmlns="http://www.w3.org/2000/svg" viewBox="0 0 360 520" width="360" height="520">
  <defs>
    <style>text { font-family: monospace; }</style>
  </defs>
  <!-- Outer frame -->
  <rect width="360" height="520" fill="#0a0a16" rx="8"/>

  <!-- HUD bar -->
  <rect x="15" y="12" width="330" height="32" fill="#12121f" stroke="#2a2a40" stroke-width="2"/>

  <!-- Pixel icon in HUD (flappy-bird from icons.js) -->
  <g transform="translate(22, 16)" shape-rendering="crispEdges">
    <rect x="4.5" y="0" width="6" height="1.5" fill="#ffd700"/>
    <rect x="3" y="1.5" width="9" height="1.5" fill="#ffd700"/>
    <rect x="1.5" y="1.5" width="1.5" height="1.5" fill="#b89a00"/>
    <rect x="1.5" y="3" width="12" height="1.5" fill="#ffd700"/>
    <rect x="6" y="3" width="3" height="1.5" fill="#ffffff"/>
    <rect x="9" y="3" width="1.5" height="1.5" fill="#0a0a16"/>
    <rect x="1.5" y="4.5" width="12" height="1.5" fill="#ffd700"/>
    <rect x="6" y="4.5" width="3" height="1.5" fill="#ffffff"/>
    <rect x="9" y="4.5" width="1.5" height="1.5" fill="#0a0a16"/>
    <rect x="0" y="6" width="13.5" height="1.5" fill="#ffd700"/>
    <rect x="0" y="6" width="1.5" height="1.5" fill="#b89a00"/>
    <rect x="1.5" y="7.5" width="12" height="1.5" fill="#ffd700"/>
    <rect x="6" y="7.5" width="9" height="1.5" fill="#ff8844"/>
    <rect x="1.5" y="9" width="10.5" height="1.5" fill="#ffd700"/>
    <rect x="6" y="9" width="7.5" height="1.5" fill="#ff8844"/>
    <rect x="3" y="10.5" width="9" height="1.5" fill="#ffd700"/>
    <rect x="4.5" y="12" width="6" height="1.5" fill="#ffd700"/>
    <rect x="6" y="13.5" width="3" height="1.5" fill="#ffd700"/>
  </g>

  <text font-size="11" fill="#e0e0e0" x="46" y="33" font-weight="bold">Flappy Bird</text>
  <text font-size="8" fill="#666" x="210" y="31">Score</text>
  <text font-size="10" fill="#ffd700" x="245" y="31">4</text>
  <text font-size="8" fill="#666" x="275" y="31">Best</text>
  <text font-size="10" fill="#ffd700" x="305" y="31">12</text>

  <!-- Game area background (dark sky) -->
  <rect x="15" y="50" width="330" height="410" fill="#0e0e1a"/>

  <!-- Stars -->
  <rect x="30" y="65" width="2" height="2" fill="#fff" opacity="0.4"/>
  <rect x="85" y="90" width="1" height="1" fill="#fff" opacity="0.6"/>
  <rect x="140" y="60" width="2" height="2" fill="#fff" opacity="0.3"/>
  <rect x="200" y="110" width="1" height="1" fill="#fff" opacity="0.5"/>
  <rect x="260" y="75" width="2" height="2" fill="#fff" opacity="0.4"/>
  <rect x="310" y="95" width="1" height="1" fill="#fff" opacity="0.3"/>
  <rect x="55" y="130" width="1" height="1" fill="#fff" opacity="0.5"/>
  <rect x="175" y="80" width="2" height="2" fill="#fff" opacity="0.35"/>
  <rect x="290" y="140" width="1" height="1" fill="#fff" opacity="0.45"/>
  <rect x="120" y="155" width="2" height="2" fill="#fff" opacity="0.3"/>

  <!-- PIPE 1 (passed, left side, x~25) — bird scored this -->
  <!-- Top pipe -->
  <rect x="29" y="50" width="44" height="100" fill="#44ff66"/>
  <rect x="29" y="50" width="4" height="100" fill="#22aa44"/>
  <rect x="25" y="150" width="52" height="16" fill="#44ff66"/>
  <rect x="25" y="150" width="4" height="16" fill="#22aa44"/>
  <rect x="69" y="150" width="4" height="16" fill="rgba(255,255,255,0.1)"/>
  <!-- Bottom pipe -->
  <rect x="25" y="306" width="52" height="16" fill="#44ff66"/>
  <rect x="25" y="306" width="4" height="16" fill="#22aa44"/>
  <rect x="69" y="306" width="4" height="16" fill="rgba(255,255,255,0.1)"/>
  <rect x="29" y="322" width="44" height="138" fill="#44ff66"/>
  <rect x="29" y="322" width="4" height="138" fill="#22aa44"/>

  <!-- PIPE 2 (passed, x~105) — bird scored this -->
  <!-- Top pipe -->
  <rect x="109" y="50" width="44" height="140" fill="#44ff66"/>
  <rect x="109" y="50" width="4" height="140" fill="#22aa44"/>
  <rect x="105" y="190" width="52" height="16" fill="#44ff66"/>
  <rect x="105" y="190" width="4" height="16" fill="#22aa44"/>
  <rect x="149" y="190" width="4" height="16" fill="rgba(255,255,255,0.1)"/>
  <!-- Bottom pipe -->
  <rect x="105" y="346" width="52" height="16" fill="#44ff66"/>
  <rect x="105" y="346" width="4" height="16" fill="#22aa44"/>
  <rect x="149" y="346" width="4" height="16" fill="rgba(255,255,255,0.1)"/>
  <rect x="109" y="362" width="44" height="98" fill="#44ff66"/>
  <rect x="109" y="362" width="4" height="98" fill="#22aa44"/>

  <!-- PIPE 3 (bird is between this one, x~185) — bird scored this -->
  <!-- Top pipe -->
  <rect x="189" y="50" width="44" height="110" fill="#44ff66"/>
  <rect x="189" y="50" width="4" height="110" fill="#22aa44"/>
  <rect x="185" y="160" width="52" height="16" fill="#44ff66"/>
  <rect x="185" y="160" width="4" height="16" fill="#22aa44"/>
  <rect x="229" y="160" width="4" height="16" fill="rgba(255,255,255,0.1)"/>
  <!-- Bottom pipe -->
  <rect x="185" y="316" width="52" height="16" fill="#44ff66"/>
  <rect x="185" y="316" width="4" height="16" fill="#22aa44"/>
  <rect x="229" y="316" width="4" height="16" fill="rgba(255,255,255,0.1)"/>
  <rect x="189" y="332" width="44" height="128" fill="#44ff66"/>
  <rect x="189" y="332" width="4" height="128" fill="#22aa44"/>

  <!-- PIPE 4 (approaching from right, x~280) — not yet scored -->
  <!-- Top pipe -->
  <rect x="284" y="50" width="44" height="130" fill="#44ff66"/>
  <rect x="284" y="50" width="4" height="130" fill="#22aa44"/>
  <rect x="280" y="180" width="52" height="16" fill="#44ff66"/>
  <rect x="280" y="180" width="4" height="16" fill="#22aa44"/>
  <rect x="324" y="180" width="4" height="16" fill="rgba(255,255,255,0.1)"/>
  <!-- Bottom pipe -->
  <rect x="280" y="336" width="52" height="16" fill="#44ff66"/>
  <rect x="280" y="336" width="4" height="16" fill="#22aa44"/>
  <rect x="324" y="336" width="4" height="16" fill="rgba(255,255,255,0.1)"/>
  <rect x="284" y="352" width="44" height="108" fill="#44ff66"/>
  <rect x="284" y="352" width="4" height="108" fill="#22aa44"/>

  <!-- Bird at x=95 (birdX=80 + offset for visual), y=230, slightly tilted up (just flapped) -->
  <g transform="translate(95, 230) rotate(-15)">
    <!-- Body -->
    <circle cx="0" cy="0" r="16" fill="#ffd700"/>
    <!-- Wing -->
    <polygon points="-5,-2 -16,5 -3,6" fill="#ffaa00"/>
    <!-- Eye -->
    <circle cx="6" cy="-4" r="4.5" fill="#ffffff"/>
    <circle cx="7.5" cy="-4" r="2.2" fill="#0a0a16"/>
    <!-- Beak -->
    <polygon points="11,-2 21,2 11,4" fill="#ff8844"/>
  </g>

  <!-- Ground -->
  <rect x="15" y="400" width="330" height="60" fill="#2a2a40"/>
  <rect x="15" y="400" width="330" height="2" fill="#3a3a55"/>
  <!-- Ground texture -->
  <rect x="20" y="408" width="12" height="2" fill="#3a3a55"/>
  <rect x="44" y="408" width="12" height="2" fill="#3a3a55"/>
  <rect x="68" y="408" width="12" height="2" fill="#3a3a55"/>
  <rect x="92" y="408" width="12" height="2" fill="#3a3a55"/>
  <rect x="116" y="408" width="12" height="2" fill="#3a3a55"/>
  <rect x="140" y="408" width="12" height="2" fill="#3a3a55"/>
  <rect x="164" y="408" width="12" height="2" fill="#3a3a55"/>
  <rect x="188" y="408" width="12" height="2" fill="#3a3a55"/>
  <rect x="212" y="408" width="12" height="2" fill="#3a3a55"/>
  <rect x="236" y="408" width="12" height="2" fill="#3a3a55"/>
  <rect x="260" y="408" width="12" height="2" fill="#3a3a55"/>
  <rect x="284" y="408" width="12" height="2" fill="#3a3a55"/>
  <rect x="308" y="408" width="12" height="2" fill="#3a3a55"/>
  <rect x="332" y="408" width="12" height="2" fill="#3a3a55"/>
  <rect x="32" y="420" width="12" height="2" fill="#3a3a55"/>
  <rect x="56" y="420" width="12" height="2" fill="#3a3a55"/>
  <rect x="80" y="420" width="12" height="2" fill="#3a3a55"/>
  <rect x="104" y="420" width="12" height="2" fill="#3a3a55"/>
  <rect x="128" y="420" width="12" height="2" fill="#3a3a55"/>
  <rect x="152" y="420" width="12" height="2" fill="#3a3a55"/>
  <rect x="176" y="420" width="12" height="2" fill="#3a3a55"/>
  <rect x="200" y="420" width="12" height="2" fill="#3a3a55"/>
  <rect x="224" y="420" width="12" height="2" fill="#3a3a55"/>
  <rect x="248" y="420" width="12" height="2" fill="#3a3a55"/>
  <rect x="272" y="420" width="12" height="2" fill="#3a3a55"/>
  <rect x="296" y="420" width="12" height="2" fill="#3a3a55"/>
  <rect x="320" y="420" width="12" height="2" fill="#3a3a55"/>

  <!-- Border -->
  <rect width="360" height="520" fill="none" stroke="#2a2a40" stroke-width="2" rx="8"/>
</svg>
