<svg xmlns="http://www.w3.org/2000/svg" viewBox="0 0 800 220" font-family="'Press Start 2P', monospace" shape-rendering="crispEdges">
<defs>
  <linearGradient id="bg" x1="0%" y1="0%" x2="100%" y2="100%">
    <stop offset="0%" stop-color="#0a0a16"/>
    <stop offset="100%" stop-color="#12121f"/>
  </linearGradient>
  <linearGradient id="title" x1="0%" y1="0%" x2="100%" y2="100%">
    <stop offset="0%" stop-color="#ffd700"/>
    <stop offset="50%" stop-color="#ff6b6b"/>
    <stop offset="100%" stop-color="#c084fc"/>
  </linearGradient>
</defs>
<rect width="800" height="220" rx="8" fill="url(#bg)" stroke="#2a2a40" stroke-width="2"/>
<rect x="42" y="33" width="3" height="3" fill="#44ff66" opacity="0.5"/>
<rect x="45" y="33" width="3" height="3" fill="#44ff66" opacity="0.5"/>
<rect x="48" y="33" width="3" height="3" fill="#44ff66" opacity="0.5"/>
<rect x="51" y="33" width="3" height="3" fill="#44ff66" opacity="0.5"/>
<rect x="54" y="33" width="3" height="3" fill="#44ff66" opacity="0.5"/>
<rect x="57" y="33" width="3" height="3" fill="#44ff66" opacity="0.5"/>
<rect x="39" y="36" width="3" height="3" fill="#44ff66" opacity="0.5"/>
<rect x="42" y="36" width="3" height="3" fill="#22aa44" opacity="0.5"/>
<rect x="45" y="36" width="3" height="3" fill="#22aa44" opacity="0.5"/>
<rect x="48" y="36" width="3" height="3" fill="#22aa44" opacity="0.5"/>
<rect x="51" y="36" width="3" height="3" fill="#22aa44" opacity="0.5"/>
<rect x="54" y="36" width="3" height="3" fill="#22aa44" opacity="0.5"/>
<rect x="57" y="36" width="3" height="3" fill="#22aa44" opacity="0.5"/>
<rect x="60" y="36" width="3" height="3" fill="#44ff66" opacity="0.5"/>
<rect x="36" y="39" width="3" height="3" fill="#44ff66" opacity="0.5"/>
<rect x="39" y="39" width="3" height="3" fill="#22aa44" opacity="0.5"/>
<rect x="42" y="39" width="3" height="3" fill="#ffffff" opacity="0.5"/>
<rect x="45" y="39" width="3" height="3" fill="#222222" opacity="0.5"/>
<rect x="48" y="39" width="3" height="3" fill="#22aa44" opacity="0.5"/>
<rect x="51" y="39" width="3" height="3" fill="#22aa44" opacity="0.5"/>
<rect x="54" y="39" width="3" height="3" fill="#ffffff" opacity="0.5"/>
<rect x="57" y="39" width="3" height="3" fill="#222222" opacity="0.5"/>
<rect x="60" y="39" width="3" height="3" fill="#22aa44" opacity="0.5"/>
<rect x="63" y="39" width="3" height="3" fill="#44ff66" opacity="0.5"/>
<rect x="36" y="42" width="3" height="3" fill="#44ff66" opacity="0.5"/>
<rect x="39" y="42" width="3" height="3" fill="#22aa44" opacity="0.5"/>
<rect x="42" y="42" width="3" height="3" fill="#22aa44" opacity="0.5"/>
<rect x="45" y="42" width="3" height="3" fill="#22aa44" opacity="0.5"/>
<rect x="48" y="42" width="3" height="3" fill="#22aa44" opacity="0.5"/>
<rect x="51" y="42" width="3" height="3" fill="#22aa44" opacity="0.5"/>
<rect x="54" y="42" width="3" height="3" fill="#22aa44" opacity="0.5"/>
<rect x="57" y="42" width="3" height="3" fill="#22aa44" opacity="0.5"/>
<rect x="60" y="42" width="3" height="3" fill="#22aa44" opacity="0.5"/>
<rect x="63" y="42" width="3" height="3" fill="#44ff66" opacity="0.5"/>
<rect x="36" y="45" width="3" height="3" fill="#44ff66" opacity="0.5"/>
<rect x="39" y="45" width="3" height="3" fill="#22aa44" opacity="0.5"/>
<rect x="42" y="45" width="3" height="3" fill="#22aa44" opacity="0.5"/>
<rect x="45" y="45" width="3" height="3" fill="#22aa44" opacity="0.5"/>
<rect x="48" y="45" width="3" height="3" fill="#ff4444" opacity="0.5"/>
<rect x="51" y="45" width="3" height="3" fill="#ff4444" opacity="0.5"/>
<rect x="54" y="45" width="3" height="3" fill="#22aa44" opacity="0.5"/>
<rect x="57" y="45" width="3" height="3" fill="#22aa44" opacity="0.5"/>
<rect x="60" y="45" width="3" height="3" fill="#22aa44" opacity="0.5"/>
<rect x="63" y="45" width="3" height="3" fill="#44ff66" opacity="0.5"/>
<rect x="39" y="48" width="3" height="3" fill="#44ff66" opacity="0.5"/>
<rect x="42" y="48" width="3" height="3" fill="#22aa44" opacity="0.5"/>
<rect x="45" y="48" width="3" height="3" fill="#22aa44" opacity="0.5"/>
<rect x="48" y="48" width="3" height="3" fill="#22aa44" opacity="0.5"/>
<rect x="51" y="48" width="3" height="3" fill="#22aa44" opacity="0.5"/>
<rect x="54" y="48" width="3" height="3" fill="#22aa44" opacity="0.5"/>
<rect x="57" y="48" width="3" height="3" fill="#22aa44" opacity="0.5"/>
<rect x="60" y="48" width="3" height="3" fill="#44ff66" opacity="0.5"/>
<rect x="42" y="51" width="3" height="3" fill="#44ff66" opacity="0.5"/>
<rect x="45" y="51" width="3" height="3" fill="#44ff66" opacity="0.5"/>
<rect x="48" y="51" width="3" height="3" fill="#44ff66" opacity="0.5"/>
<rect x="51" y="51" width="3" height="3" fill="#44ff66" opacity="0.5"/>
<rect x="54" y="51" width="3" height="3" fill="#44ff66" opacity="0.5"/>
<rect x="57" y="51" width="3" height="3" fill="#44ff66" opacity="0.5"/>
<rect x="48" y="54" width="3" height="3" fill="#44ff66" opacity="0.5"/>
<rect x="51" y="54" width="3" height="3" fill="#22aa44" opacity="0.5"/>
<rect x="54" y="54" width="3" height="3" fill="#44ff66" opacity="0.5"/>
<rect x="42" y="57" width="3" height="3" fill="#44ff66" opacity="0.5"/>
<rect x="45" y="57" width="3" height="3" fill="#22aa44" opacity="0.5"/>
<rect x="48" y="57" width="3" height="3" fill="#22aa44" opacity="0.5"/>
<rect x="51" y="57" width="3" height="3" fill="#44ff66" opacity="0.5"/>
<rect x="39" y="60" width="3" height="3" fill="#44ff66" opacity="0.5"/>
<rect x="42" y="60" width="3" height="3" fill="#22aa44" opacity="0.5"/>
<rect x="45" y="60" width="3" height="3" fill="#22aa44" opacity="0.5"/>
<rect x="48" y="60" width="3" height="3" fill="#44ff66" opacity="0.5"/>
<rect x="39" y="63" width="3" height="3" fill="#44ff66" opacity="0.5"/>
<rect x="42" y="63" width="3" height="3" fill="#22aa44" opacity="0.5"/>
<rect x="45" y="63" width="3" height="3" fill="#22aa44" opacity="0.5"/>
<rect x="48" y="63" width="3" height="3" fill="#22aa44" opacity="0.5"/>
<rect x="51" y="63" width="3" height="3" fill="#44ff66" opacity="0.5"/>
<rect x="42" y="66" width="3" height="3" fill="#44ff66" opacity="0.5"/>
<rect x="45" y="66" width="3" height="3" fill="#22aa44" opacity="0.5"/>
<rect x="48" y="66" width="3" height="3" fill="#22aa44" opacity="0.5"/>
<rect x="51" y="66" width="3" height="3" fill="#22aa44" opacity="0.5"/>
<rect x="54" y="66" width="3" height="3" fill="#44ff66" opacity="0.5"/>
<rect x="112" y="123" width="3" height="3" fill="#44aaff" opacity="0.5"/>
<rect x="115" y="123" width="3" height="3" fill="#44aaff" opacity="0.5"/>
<rect x="112" y="126" width="3" height="3" fill="#44aaff" opacity="0.5"/>
<rect x="115" y="126" width="3" height="3" fill="#44aaff" opacity="0.5"/>
<rect x="112" y="129" width="3" height="3" fill="#44aaff" opacity="0.5"/>
<rect x="115" y="129" width="3" height="3" fill="#44aaff" opacity="0.5"/>
<rect x="118" y="129" width="3" height="3" fill="#44aaff" opacity="0.5"/>
<rect x="121" y="129" width="3" height="3" fill="#44aaff" opacity="0.5"/>
<rect x="112" y="132" width="3" height="3" fill="#44aaff" opacity="0.5"/>
<rect x="115" y="132" width="3" height="3" fill="#44aaff" opacity="0.5"/>
<rect x="118" y="132" width="3" height="3" fill="#44aaff" opacity="0.5"/>
<rect x="121" y="132" width="3" height="3" fill="#44aaff" opacity="0.5"/>
<rect x="106" y="138" width="3" height="3" fill="#ff8844" opacity="0.5"/>
<rect x="109" y="138" width="3" height="3" fill="#ff8844" opacity="0.5"/>
<rect x="112" y="138" width="3" height="3" fill="#ff8844" opacity="0.5"/>
<rect x="115" y="138" width="3" height="3" fill="#ff8844" opacity="0.5"/>
<rect x="106" y="141" width="3" height="3" fill="#ff8844" opacity="0.5"/>
<rect x="109" y="141" width="3" height="3" fill="#ff8844" opacity="0.5"/>
<rect x="112" y="141" width="3" height="3" fill="#ff8844" opacity="0.5"/>
<rect x="115" y="141" width="3" height="3" fill="#ff8844" opacity="0.5"/>
<rect x="124" y="147" width="3" height="3" fill="#ff4444" opacity="0.5"/>
<rect x="127" y="147" width="3" height="3" fill="#ff4444" opacity="0.5"/>
<rect x="121" y="150" width="3" height="3" fill="#ff4444" opacity="0.5"/>
<rect x="124" y="150" width="3" height="3" fill="#ff4444" opacity="0.5"/>
<rect x="121" y="153" width="3" height="3" fill="#ff4444" opacity="0.5"/>
<rect x="124" y="153" width="3" height="3" fill="#ff4444" opacity="0.5"/>
<rect x="118" y="159" width="3" height="3" fill="#44ff66" opacity="0.5"/>
<rect x="121" y="159" width="3" height="3" fill="#44ff66" opacity="0.5"/>
<rect x="118" y="162" width="3" height="3" fill="#44ff66" opacity="0.5"/>
<rect x="121" y="162" width="3" height="3" fill="#44ff66" opacity="0.5"/>
<rect x="124" y="162" width="3" height="3" fill="#44ff66" opacity="0.5"/>
<rect x="127" y="162" width="3" height="3" fill="#44ff66" opacity="0.5"/>
<rect x="163" y="43" width="3" height="3" fill="#ff4444" opacity="0.5"/>
<rect x="166" y="43" width="3" height="3" fill="#ff4444" opacity="0.5"/>
<rect x="169" y="43" width="3" height="3" fill="#ff4444" opacity="0.5"/>
<rect x="172" y="43" width="3" height="3" fill="#ff4444" opacity="0.5"/>
<rect x="175" y="43" width="3" height="3" fill="#ff4444" opacity="0.5"/>
<rect x="178" y="43" width="3" height="3" fill="#ff4444" opacity="0.5"/>
<rect x="181" y="43" width="3" height="3" fill="#ff4444" opacity="0.5"/>
<rect x="184" y="43" width="3" height="3" fill="#ff4444" opacity="0.5"/>
<rect x="187" y="43" width="3" height="3" fill="#ff4444" opacity="0.5"/>
<rect x="190" y="43" width="3" height="3" fill="#ff4444" opacity="0.5"/>
<rect x="193" y="43" width="3" height="3" fill="#ff4444" opacity="0.5"/>
<rect x="196" y="43" width="3" height="3" fill="#ff4444" opacity="0.5"/>
<rect x="199" y="43" width="3" height="3" fill="#ff4444" opacity="0.5"/>
<rect x="202" y="43" width="3" height="3" fill="#ff4444" opacity="0.5"/>
<rect x="163" y="46" width="3" height="3" fill="#ff4444" opacity="0.5"/>
<rect x="166" y="46" width="3" height="3" fill="#cc2222" opacity="0.5"/>
<rect x="169" y="46" width="3" height="3" fill="#ff4444" opacity="0.5"/>
<rect x="172" y="46" width="3" height="3" fill="#cc2222" opacity="0.5"/>
<rect x="175" y="46" width="3" height="3" fill="#ff4444" opacity="0.5"/>
<rect x="178" y="46" width="3" height="3" fill="#cc2222" opacity="0.5"/>
<rect x="181" y="46" width="3" height="3" fill="#ff4444" opacity="0.5"/>
<rect x="184" y="46" width="3" height="3" fill="#cc2222" opacity="0.5"/>
<rect x="187" y="46" width="3" height="3" fill="#ff4444" opacity="0.5"/>
<rect x="190" y="46" width="3" height="3" fill="#cc2222" opacity="0.5"/>
<rect x="193" y="46" width="3" height="3" fill="#ff4444" opacity="0.5"/>
<rect x="196" y="46" width="3" height="3" fill="#cc2222" opacity="0.5"/>
<rect x="199" y="46" width="3" height="3" fill="#ff4444" opacity="0.5"/>
<rect x="163" y="49" width="3" height="3" fill="#ff8844" opacity="0.5"/>
<rect x="166" y="49" width="3" height="3" fill="#ff8844" opacity="0.5"/>
<rect x="169" y="49" width="3" height="3" fill="#ff8844" opacity="0.5"/>
<rect x="172" y="49" width="3" height="3" fill="#ff8844" opacity="0.5"/>
<rect x="175" y="49" width="3" height="3" fill="#ff8844" opacity="0.5"/>
<rect x="178" y="49" width="3" height="3" fill="#ff8844" opacity="0.5"/>
<rect x="181" y="49" width="3" height="3" fill="#ff8844" opacity="0.5"/>
<rect x="184" y="49" width="3" height="3" fill="#ff8844" opacity="0.5"/>
<rect x="187" y="49" width="3" height="3" fill="#ff8844" opacity="0.5"/>
<rect x="190" y="49" width="3" height="3" fill="#ff8844" opacity="0.5"/>
<rect x="193" y="49" width="3" height="3" fill="#ff8844" opacity="0.5"/>
<rect x="196" y="49" width="3" height="3" fill="#ff8844" opacity="0.5"/>
<rect x="199" y="49" width="3" height="3" fill="#ff8844" opacity="0.5"/>
<rect x="202" y="49" width="3" height="3" fill="#ff8844" opacity="0.5"/>
<rect x="163" y="52" width="3" height="3" fill="#ff8844" opacity="0.5"/>
<rect x="166" y="52" width="3" height="3" fill="#cc6622" opacity="0.5"/>
<rect x="169" y="52" width="3" height="3" fill="#ff8844" opacity="0.5"/>
<rect x="172" y="52" width="3" height="3" fill="#cc6622" opacity="0.5"/>
<rect x="175" y="52" width="3" height="3" fill="#ff8844" opacity="0.5"/>
<rect x="178" y="52" width="3" height="3" fill="#cc6622" opacity="0.5"/>
<rect x="181" y="52" width="3" height="3" fill="#ff8844" opacity="0.5"/>
<rect x="184" y="52" width="3" height="3" fill="#cc6622" opacity="0.5"/>
<rect x="187" y="52" width="3" height="3" fill="#ff8844" opacity="0.5"/>
<rect x="190" y="52" width="3" height="3" fill="#cc6622" opacity="0.5"/>
<rect x="193" y="52" width="3" height="3" fill="#ff8844" opacity="0.5"/>
<rect x="196" y="52" width="3" height="3" fill="#cc6622" opacity="0.5"/>
<rect x="199" y="52" width="3" height="3" fill="#ff8844" opacity="0.5"/>
<rect x="163" y="55" width="3" height="3" fill="#ffd700" opacity="0.5"/>
<rect x="166" y="55" width="3" height="3" fill="#ffd700" opacity="0.5"/>
<rect x="169" y="55" width="3" height="3" fill="#ffd700" opacity="0.5"/>
<rect x="172" y="55" width="3" height="3" fill="#ffd700" opacity="0.5"/>
<rect x="175" y="55" width="3" height="3" fill="#ffd700" opacity="0.5"/>
<rect x="178" y="55" width="3" height="3" fill="#ffd700" opacity="0.5"/>
<rect x="181" y="55" width="3" height="3" fill="#ffd700" opacity="0.5"/>
<rect x="184" y="55" width="3" height="3" fill="#ffd700" opacity="0.5"/>
<rect x="187" y="55" width="3" height="3" fill="#ffd700" opacity="0.5"/>
<rect x="190" y="55" width="3" height="3" fill="#ffd700" opacity="0.5"/>
<rect x="193" y="55" width="3" height="3" fill="#ffd700" opacity="0.5"/>
<rect x="196" y="55" width="3" height="3" fill="#ffd700" opacity="0.5"/>
<rect x="199" y="55" width="3" height="3" fill="#ffd700" opacity="0.5"/>
<rect x="202" y="55" width="3" height="3" fill="#ffd700" opacity="0.5"/>
<rect x="163" y="58" width="3" height="3" fill="#ffd700" opacity="0.5"/>
<rect x="166" y="58" width="3" height="3" fill="#b89a00" opacity="0.5"/>
<rect x="169" y="58" width="3" height="3" fill="#ffd700" opacity="0.5"/>
<rect x="172" y="58" width="3" height="3" fill="#b89a00" opacity="0.5"/>
<rect x="175" y="58" width="3" height="3" fill="#ffd700" opacity="0.5"/>
<rect x="178" y="58" width="3" height="3" fill="#b89a00" opacity="0.5"/>
<rect x="181" y="58" width="3" height="3" fill="#ffd700" opacity="0.5"/>
<rect x="184" y="58" width="3" height="3" fill="#b89a00" opacity="0.5"/>
<rect x="187" y="58" width="3" height="3" fill="#ffd700" opacity="0.5"/>
<rect x="190" y="58" width="3" height="3" fill="#b89a00" opacity="0.5"/>
<rect x="193" y="58" width="3" height="3" fill="#ffd700" opacity="0.5"/>
<rect x="196" y="58" width="3" height="3" fill="#b89a00" opacity="0.5"/>
<rect x="199" y="58" width="3" height="3" fill="#ffd700" opacity="0.5"/>
<rect x="163" y="61" width="3" height="3" fill="#44ff66" opacity="0.5"/>
<rect x="166" y="61" width="3" height="3" fill="#44ff66" opacity="0.5"/>
<rect x="169" y="61" width="3" height="3" fill="#44ff66" opacity="0.5"/>
<rect x="172" y="61" width="3" height="3" fill="#44ff66" opacity="0.5"/>
<rect x="175" y="61" width="3" height="3" fill="#44ff66" opacity="0.5"/>
<rect x="178" y="61" width="3" height="3" fill="#44ff66" opacity="0.5"/>
<rect x="181" y="61" width="3" height="3" fill="#44ff66" opacity="0.5"/>
<rect x="184" y="61" width="3" height="3" fill="#44ff66" opacity="0.5"/>
<rect x="187" y="61" width="3" height="3" fill="#44ff66" opacity="0.5"/>
<rect x="190" y="61" width="3" height="3" fill="#44ff66" opacity="0.5"/>
<rect x="193" y="61" width="3" height="3" fill="#44ff66" opacity="0.5"/>
<rect x="196" y="61" width="3" height="3" fill="#44ff66" opacity="0.5"/>
<rect x="199" y="61" width="3" height="3" fill="#44ff66" opacity="0.5"/>
<rect x="202" y="61" width="3" height="3" fill="#44ff66" opacity="0.5"/>
<rect x="184" y="70" width="3" height="3" fill="#e0e0e0" opacity="0.5"/>
<rect x="181" y="73" width="3" height="3" fill="#e0e0e0" opacity="0.5"/>
<rect x="178" y="76" width="3" height="3" fill="#e0e0e0" opacity="0.5"/>
<rect x="175" y="79" width="3" height="3" fill="#e0e0e0" opacity="0.5"/>
<rect x="172" y="82" width="3" height="3" fill="#e0e0e0" opacity="0.5"/>
<rect x="175" y="82" width="3" height="3" fill="#e0e0e0" opacity="0.5"/>
<rect x="178" y="82" width="3" height="3" fill="#e0e0e0" opacity="0.5"/>
<rect x="181" y="82" width="3" height="3" fill="#e0e0e0" opacity="0.5"/>
<rect x="184" y="82" width="3" height="3" fill="#e0e0e0" opacity="0.5"/>
<rect x="187" y="82" width="3" height="3" fill="#e0e0e0" opacity="0.5"/>
<rect x="618" y="28" width="3" height="3" fill="#ffd700" opacity="0.5"/>
<rect x="621" y="28" width="3" height="3" fill="#ffd700" opacity="0.5"/>
<rect x="624" y="28" width="3" height="3" fill="#ffd700" opacity="0.5"/>
<rect x="627" y="28" width="3" height="3" fill="#ffd700" opacity="0.5"/>
<rect x="615" y="31" width="3" height="3" fill="#ffd700" opacity="0.5"/>
<rect x="618" y="31" width="3" height="3" fill="#ffd700" opacity="0.5"/>
<rect x="621" y="31" width="3" height="3" fill="#ffd700" opacity="0.5"/>
<rect x="624" y="31" width="3" height="3" fill="#ffd700" opacity="0.5"/>
<rect x="627" y="31" width="3" height="3" fill="#ffd700" opacity="0.5"/>
<rect x="630" y="31" width="3" height="3" fill="#b89a00" opacity="0.5"/>
<rect x="612" y="34" width="3" height="3" fill="#ffd700" opacity="0.5"/>
<rect x="615" y="34" width="3" height="3" fill="#ffd700" opacity="0.5"/>
<rect x="618" y="34" width="3" height="3" fill="#ffd700" opacity="0.5"/>
<rect x="621" y="34" width="3" height="3" fill="#ffffff" opacity="0.5"/>
<rect x="624" y="34" width="3" height="3" fill="#ffffff" opacity="0.5"/>
<rect x="627" y="34" width="3" height="3" fill="#ffd700" opacity="0.5"/>
<rect x="630" y="34" width="3" height="3" fill="#ffd700" opacity="0.5"/>
<rect x="633" y="34" width="3" height="3" fill="#b89a00" opacity="0.5"/>
<rect x="612" y="37" width="3" height="3" fill="#ffd700" opacity="0.5"/>
<rect x="615" y="37" width="3" height="3" fill="#ffd700" opacity="0.5"/>
<rect x="618" y="37" width="3" height="3" fill="#ffffff" opacity="0.5"/>
<rect x="621" y="37" width="3" height="3" fill="#ffffff" opacity="0.5"/>
<rect x="624" y="37" width="3" height="3" fill="#222222" opacity="0.5"/>
<rect x="627" y="37" width="3" height="3" fill="#222222" opacity="0.5"/>
<rect x="630" y="37" width="3" height="3" fill="#ffd700" opacity="0.5"/>
<rect x="633" y="37" width="3" height="3" fill="#b89a00" opacity="0.5"/>
<rect x="612" y="40" width="3" height="3" fill="#ffd700" opacity="0.5"/>
<rect x="615" y="40" width="3" height="3" fill="#ffd700" opacity="0.5"/>
<rect x="618" y="40" width="3" height="3" fill="#ffd700" opacity="0.5"/>
<rect x="621" y="40" width="3" height="3" fill="#ffd700" opacity="0.5"/>
<rect x="624" y="40" width="3" height="3" fill="#ffd700" opacity="0.5"/>
<rect x="627" y="40" width="3" height="3" fill="#ffd700" opacity="0.5"/>
<rect x="630" y="40" width="3" height="3" fill="#ffd700" opacity="0.5"/>
<rect x="609" y="43" width="3" height="3" fill="#ffd700" opacity="0.5"/>
<rect x="612" y="43" width="3" height="3" fill="#ffd700" opacity="0.5"/>
<rect x="615" y="43" width="3" height="3" fill="#ffd700" opacity="0.5"/>
<rect x="618" y="43" width="3" height="3" fill="#ffd700" opacity="0.5"/>
<rect x="621" y="43" width="3" height="3" fill="#ffd700" opacity="0.5"/>
<rect x="624" y="43" width="3" height="3" fill="#ffd700" opacity="0.5"/>
<rect x="627" y="43" width="3" height="3" fill="#ffd700" opacity="0.5"/>
<rect x="630" y="43" width="3" height="3" fill="#b89a00" opacity="0.5"/>
<rect x="606" y="46" width="3" height="3" fill="#ffd700" opacity="0.5"/>
<rect x="609" y="46" width="3" height="3" fill="#ffd700" opacity="0.5"/>
<rect x="612" y="46" width="3" height="3" fill="#ffd700" opacity="0.5"/>
<rect x="615" y="46" width="3" height="3" fill="#ffd700" opacity="0.5"/>
<rect x="618" y="46" width="3" height="3" fill="#ff8844" opacity="0.5"/>
<rect x="621" y="46" width="3" height="3" fill="#ff8844" opacity="0.5"/>
<rect x="624" y="46" width="3" height="3" fill="#ff8844" opacity="0.5"/>
<rect x="627" y="46" width="3" height="3" fill="#ff8844" opacity="0.5"/>
<rect x="630" y="46" width="3" height="3" fill="#b89a00" opacity="0.5"/>
<rect x="606" y="49" width="3" height="3" fill="#ffd700" opacity="0.5"/>
<rect x="609" y="49" width="3" height="3" fill="#ffd700" opacity="0.5"/>
<rect x="612" y="49" width="3" height="3" fill="#ffd700" opacity="0.5"/>
<rect x="615" y="49" width="3" height="3" fill="#ff8844" opacity="0.5"/>
<rect x="618" y="49" width="3" height="3" fill="#ff8844" opacity="0.5"/>
<rect x="621" y="49" width="3" height="3" fill="#ff8844" opacity="0.5"/>
<rect x="624" y="49" width="3" height="3" fill="#ff8844" opacity="0.5"/>
<rect x="627" y="49" width="3" height="3" fill="#ff8844" opacity="0.5"/>
<rect x="609" y="52" width="3" height="3" fill="#ffd700" opacity="0.5"/>
<rect x="612" y="52" width="3" height="3" fill="#ffd700" opacity="0.5"/>
<rect x="615" y="52" width="3" height="3" fill="#ffd700" opacity="0.5"/>
<rect x="618" y="52" width="3" height="3" fill="#ffd700" opacity="0.5"/>
<rect x="621" y="52" width="3" height="3" fill="#ffd700" opacity="0.5"/>
<rect x="624" y="52" width="3" height="3" fill="#ffd700" opacity="0.5"/>
<rect x="612" y="55" width="3" height="3" fill="#ffd700" opacity="0.5"/>
<rect x="615" y="55" width="3" height="3" fill="#ffd700" opacity="0.5"/>
<rect x="618" y="55" width="3" height="3" fill="#ffd700" opacity="0.5"/>
<rect x="621" y="55" width="3" height="3" fill="#ffd700" opacity="0.5"/>
<rect x="615" y="58" width="3" height="3" fill="#ffd700" opacity="0.5"/>
<rect x="618" y="58" width="3" height="3" fill="#ffd700" opacity="0.5"/>
<rect x="606" y="64" width="3" height="3" fill="#666666" opacity="0.5"/>
<rect x="609" y="64" width="3" height="3" fill="#666666" opacity="0.5"/>
<rect x="612" y="64" width="3" height="3" fill="#666666" opacity="0.5"/>
<rect x="624" y="64" width="3" height="3" fill="#666666" opacity="0.5"/>
<rect x="627" y="64" width="3" height="3" fill="#666666" opacity="0.5"/>
<rect x="630" y="64" width="3" height="3" fill="#666666" opacity="0.5"/>
<rect x="603" y="67" width="3" height="3" fill="#666666" opacity="0.5"/>
<rect x="606" y="67" width="3" height="3" fill="#666666" opacity="0.5"/>
<rect x="609" y="67" width="3" height="3" fill="#666666" opacity="0.5"/>
<rect x="612" y="67" width="3" height="3" fill="#666666" opacity="0.5"/>
<rect x="615" y="67" width="3" height="3" fill="#666666" opacity="0.5"/>
<rect x="621" y="67" width="3" height="3" fill="#666666" opacity="0.5"/>
<rect x="624" y="67" width="3" height="3" fill="#666666" opacity="0.5"/>
<rect x="627" y="67" width="3" height="3" fill="#666666" opacity="0.5"/>
<rect x="630" y="67" width="3" height="3" fill="#666666" opacity="0.5"/>
<rect x="633" y="67" width="3" height="3" fill="#666666" opacity="0.5"/>
<rect x="692" y="113" width="3" height="3" fill="#c084fc" opacity="0.5"/>
<rect x="707" y="113" width="3" height="3" fill="#c084fc" opacity="0.5"/>
<rect x="695" y="116" width="3" height="3" fill="#c084fc" opacity="0.5"/>
<rect x="704" y="116" width="3" height="3" fill="#c084fc" opacity="0.5"/>
<rect x="692" y="119" width="3" height="3" fill="#c084fc" opacity="0.5"/>
<rect x="695" y="119" width="3" height="3" fill="#c084fc" opacity="0.5"/>
<rect x="698" y="119" width="3" height="3" fill="#c084fc" opacity="0.5"/>
<rect x="701" y="119" width="3" height="3" fill="#c084fc" opacity="0.5"/>
<rect x="704" y="119" width="3" height="3" fill="#c084fc" opacity="0.5"/>
<rect x="707" y="119" width="3" height="3" fill="#c084fc" opacity="0.5"/>
<rect x="689" y="122" width="3" height="3" fill="#c084fc" opacity="0.5"/>
<rect x="692" y="122" width="3" height="3" fill="#c084fc" opacity="0.5"/>
<rect x="695" y="122" width="3" height="3" fill="#e0e0e0" opacity="0.5"/>
<rect x="698" y="122" width="3" height="3" fill="#c084fc" opacity="0.5"/>
<rect x="701" y="122" width="3" height="3" fill="#c084fc" opacity="0.5"/>
<rect x="704" y="122" width="3" height="3" fill="#e0e0e0" opacity="0.5"/>
<rect x="707" y="122" width="3" height="3" fill="#c084fc" opacity="0.5"/>
<rect x="710" y="122" width="3" height="3" fill="#c084fc" opacity="0.5"/>
<rect x="686" y="125" width="3" height="3" fill="#c084fc" opacity="0.5"/>
<rect x="689" y="125" width="3" height="3" fill="#c084fc" opacity="0.5"/>
<rect x="692" y="125" width="3" height="3" fill="#c084fc" opacity="0.5"/>
<rect x="695" y="125" width="3" height="3" fill="#c084fc" opacity="0.5"/>
<rect x="698" y="125" width="3" height="3" fill="#c084fc" opacity="0.5"/>
<rect x="701" y="125" width="3" height="3" fill="#c084fc" opacity="0.5"/>
<rect x="704" y="125" width="3" height="3" fill="#c084fc" opacity="0.5"/>
<rect x="707" y="125" width="3" height="3" fill="#c084fc" opacity="0.5"/>
<rect x="710" y="125" width="3" height="3" fill="#c084fc" opacity="0.5"/>
<rect x="713" y="125" width="3" height="3" fill="#c084fc" opacity="0.5"/>
<rect x="686" y="128" width="3" height="3" fill="#c084fc" opacity="0.5"/>
<rect x="689" y="128" width="3" height="3" fill="#c084fc" opacity="0.5"/>
<rect x="692" y="128" width="3" height="3" fill="#c084fc" opacity="0.5"/>
<rect x="695" y="128" width="3" height="3" fill="#c084fc" opacity="0.5"/>
<rect x="698" y="128" width="3" height="3" fill="#c084fc" opacity="0.5"/>
<rect x="701" y="128" width="3" height="3" fill="#c084fc" opacity="0.5"/>
<rect x="704" y="128" width="3" height="3" fill="#c084fc" opacity="0.5"/>
<rect x="707" y="128" width="3" height="3" fill="#c084fc" opacity="0.5"/>
<rect x="710" y="128" width="3" height="3" fill="#c084fc" opacity="0.5"/>
<rect x="713" y="128" width="3" height="3" fill="#c084fc" opacity="0.5"/>
<rect x="686" y="131" width="3" height="3" fill="#c084fc" opacity="0.5"/>
<rect x="692" y="131" width="3" height="3" fill="#c084fc" opacity="0.5"/>
<rect x="695" y="131" width="3" height="3" fill="#c084fc" opacity="0.5"/>
<rect x="698" y="131" width="3" height="3" fill="#c084fc" opacity="0.5"/>
<rect x="701" y="131" width="3" height="3" fill="#c084fc" opacity="0.5"/>
<rect x="704" y="131" width="3" height="3" fill="#c084fc" opacity="0.5"/>
<rect x="707" y="131" width="3" height="3" fill="#c084fc" opacity="0.5"/>
<rect x="713" y="131" width="3" height="3" fill="#c084fc" opacity="0.5"/>
<rect x="686" y="134" width="3" height="3" fill="#c084fc" opacity="0.5"/>
<rect x="692" y="134" width="3" height="3" fill="#c084fc" opacity="0.5"/>
<rect x="707" y="134" width="3" height="3" fill="#c084fc" opacity="0.5"/>
<rect x="713" y="134" width="3" height="3" fill="#c084fc" opacity="0.5"/>
<rect x="692" y="137" width="3" height="3" fill="#c084fc" opacity="0.5"/>
<rect x="695" y="137" width="3" height="3" fill="#c084fc" opacity="0.5"/>
<rect x="704" y="137" width="3" height="3" fill="#c084fc" opacity="0.5"/>
<rect x="707" y="137" width="3" height="3" fill="#c084fc" opacity="0.5"/>
<rect x="698" y="143" width="3" height="3" fill="#44aaff" opacity="0.5"/>
<rect x="701" y="143" width="3" height="3" fill="#44aaff" opacity="0.5"/>
<rect x="695" y="146" width="3" height="3" fill="#44aaff" opacity="0.5"/>
<rect x="698" y="146" width="3" height="3" fill="#44aaff" opacity="0.5"/>
<rect x="701" y="146" width="3" height="3" fill="#44aaff" opacity="0.5"/>
<rect x="704" y="146" width="3" height="3" fill="#44aaff" opacity="0.5"/>
<rect x="692" y="149" width="3" height="3" fill="#44aaff" opacity="0.5"/>
<rect x="695" y="149" width="3" height="3" fill="#44aaff" opacity="0.5"/>
<rect x="698" y="149" width="3" height="3" fill="#44aaff" opacity="0.5"/>
<rect x="701" y="149" width="3" height="3" fill="#44aaff" opacity="0.5"/>
<rect x="704" y="149" width="3" height="3" fill="#44aaff" opacity="0.5"/>
<rect x="707" y="149" width="3" height="3" fill="#44aaff" opacity="0.5"/>
<rect x="698" y="152" width="3" height="3" fill="#44aaff" opacity="0.5"/>
<rect x="701" y="152" width="3" height="3" fill="#44aaff" opacity="0.5"/>
<rect x="723" y="33" width="3" height="3" fill="#e0e0e0" opacity="0.5"/>
<rect x="726" y="33" width="3" height="3" fill="#e0e0e0" opacity="0.5"/>
<rect x="759" y="33" width="3" height="3" fill="#e0e0e0" opacity="0.5"/>
<rect x="762" y="33" width="3" height="3" fill="#e0e0e0" opacity="0.5"/>
<rect x="723" y="36" width="3" height="3" fill="#e0e0e0" opacity="0.5"/>
<rect x="726" y="36" width="3" height="3" fill="#e0e0e0" opacity="0.5"/>
<rect x="759" y="36" width="3" height="3" fill="#e0e0e0" opacity="0.5"/>
<rect x="762" y="36" width="3" height="3" fill="#e0e0e0" opacity="0.5"/>
<rect x="723" y="39" width="3" height="3" fill="#e0e0e0" opacity="0.5"/>
<rect x="726" y="39" width="3" height="3" fill="#e0e0e0" opacity="0.5"/>
<rect x="741" y="39" width="3" height="3" fill="#e0e0e0" opacity="0.5"/>
<rect x="744" y="39" width="3" height="3" fill="#e0e0e0" opacity="0.5"/>
<rect x="759" y="39" width="3" height="3" fill="#e0e0e0" opacity="0.5"/>
<rect x="762" y="39" width="3" height="3" fill="#e0e0e0" opacity="0.5"/>
<rect x="723" y="42" width="3" height="3" fill="#e0e0e0" opacity="0.5"/>
<rect x="726" y="42" width="3" height="3" fill="#e0e0e0" opacity="0.5"/>
<rect x="738" y="42" width="3" height="3" fill="#e0e0e0" opacity="0.5"/>
<rect x="741" y="42" width="3" height="3" fill="#e0e0e0" opacity="0.5"/>
<rect x="759" y="42" width="3" height="3" fill="#e0e0e0" opacity="0.5"/>
<rect x="762" y="42" width="3" height="3" fill="#e0e0e0" opacity="0.5"/>
<rect x="723" y="45" width="3" height="3" fill="#e0e0e0" opacity="0.5"/>
<rect x="726" y="45" width="3" height="3" fill="#e0e0e0" opacity="0.5"/>
<rect x="735" y="45" width="3" height="3" fill="#e0e0e0" opacity="0.5"/>
<rect x="738" y="45" width="3" height="3" fill="#e0e0e0" opacity="0.5"/>
<rect x="759" y="45" width="3" height="3" fill="#e0e0e0" opacity="0.5"/>
<rect x="762" y="45" width="3" height="3" fill="#e0e0e0" opacity="0.5"/>
<rect x="723" y="48" width="3" height="3" fill="#e0e0e0" opacity="0.5"/>
<rect x="726" y="48" width="3" height="3" fill="#e0e0e0" opacity="0.5"/>
<rect x="759" y="48" width="3" height="3" fill="#e0e0e0" opacity="0.5"/>
<rect x="762" y="48" width="3" height="3" fill="#e0e0e0" opacity="0.5"/>
<rect x="723" y="51" width="3" height="3" fill="#e0e0e0" opacity="0.5"/>
<rect x="726" y="51" width="3" height="3" fill="#e0e0e0" opacity="0.5"/>
<rect x="756" y="51" width="3" height="3" fill="#e0e0e0" opacity="0.5"/>
<rect x="759" y="51" width="3" height="3" fill="#e0e0e0" opacity="0.5"/>
<rect x="723" y="54" width="3" height="3" fill="#e0e0e0" opacity="0.5"/>
<rect x="726" y="54" width="3" height="3" fill="#e0e0e0" opacity="0.5"/>
<rect x="753" y="54" width="3" height="3" fill="#e0e0e0" opacity="0.5"/>
<rect x="756" y="54" width="3" height="3" fill="#e0e0e0" opacity="0.5"/>
<rect x="723" y="57" width="3" height="3" fill="#e0e0e0" opacity="0.5"/>
<rect x="726" y="57" width="3" height="3" fill="#e0e0e0" opacity="0.5"/>
<rect x="750" y="57" width="3" height="3" fill="#e0e0e0" opacity="0.5"/>
<rect x="753" y="57" width="3" height="3" fill="#e0e0e0" opacity="0.5"/>
<rect x="759" y="57" width="3" height="3" fill="#e0e0e0" opacity="0.5"/>
<rect x="762" y="57" width="3" height="3" fill="#e0e0e0" opacity="0.5"/>
<rect x="723" y="60" width="3" height="3" fill="#e0e0e0" opacity="0.5"/>
<rect x="726" y="60" width="3" height="3" fill="#e0e0e0" opacity="0.5"/>
<rect x="747" y="60" width="3" height="3" fill="#e0e0e0" opacity="0.5"/>
<rect x="750" y="60" width="3" height="3" fill="#e0e0e0" opacity="0.5"/>
<rect x="759" y="60" width="3" height="3" fill="#e0e0e0" opacity="0.5"/>
<rect x="762" y="60" width="3" height="3" fill="#e0e0e0" opacity="0.5"/>
<rect x="723" y="63" width="3" height="3" fill="#e0e0e0" opacity="0.5"/>
<rect x="726" y="63" width="3" height="3" fill="#e0e0e0" opacity="0.5"/>
<rect x="759" y="63" width="3" height="3" fill="#e0e0e0" opacity="0.5"/>
<rect x="762" y="63" width="3" height="3" fill="#e0e0e0" opacity="0.5"/>
<rect x="723" y="66" width="3" height="3" fill="#e0e0e0" opacity="0.5"/>
<rect x="726" y="66" width="3" height="3" fill="#e0e0e0" opacity="0.5"/>
<rect x="759" y="66" width="3" height="3" fill="#e0e0e0" opacity="0.5"/>
<rect x="762" y="66" width="3" height="3" fill="#e0e0e0" opacity="0.5"/>
<rect x="723" y="69" width="3" height="3" fill="#e0e0e0" opacity="0.5"/>
<rect x="726" y="69" width="3" height="3" fill="#e0e0e0" opacity="0.5"/>
<rect x="759" y="69" width="3" height="3" fill="#e0e0e0" opacity="0.5"/>
<rect x="762" y="69" width="3" height="3" fill="#e0e0e0" opacity="0.5"/>
<rect x="561" y="133" width="3" height="3" fill="#aa6633" opacity="0.5"/>
<rect x="564" y="133" width="3" height="3" fill="#aa6633" opacity="0.5"/>
<rect x="558" y="136" width="3" height="3" fill="#aa6633" opacity="0.5"/>
<rect x="561" y="136" width="3" height="3" fill="#aa6633" opacity="0.5"/>
<rect x="555" y="139" width="3" height="3" fill="#aa6633" opacity="0.5"/>
<rect x="558" y="139" width="3" height="3" fill="#aa6633" opacity="0.5"/>
<rect x="552" y="142" width="3" height="3" fill="#ff4444" opacity="0.5"/>
<rect x="555" y="142" width="3" height="3" fill="#ff4444" opacity="0.5"/>
<rect x="558" y="142" width="3" height="3" fill="#ff4444" opacity="0.5"/>
<rect x="561" y="142" width="3" height="3" fill="#ff4444" opacity="0.5"/>
<rect x="564" y="142" width="3" height="3" fill="#ff4444" opacity="0.5"/>
<rect x="567" y="142" width="3" height="3" fill="#ff4444" opacity="0.5"/>
<rect x="549" y="145" width="3" height="3" fill="#ff4444" opacity="0.5"/>
<rect x="552" y="145" width="3" height="3" fill="#ff4444" opacity="0.5"/>
<rect x="555" y="145" width="3" height="3" fill="#ff4444" opacity="0.5"/>
<rect x="558" y="145" width="3" height="3" fill="#ff4444" opacity="0.5"/>
<rect x="561" y="145" width="3" height="3" fill="#ff4444" opacity="0.5"/>
<rect x="564" y="145" width="3" height="3" fill="#ff4444" opacity="0.5"/>
<rect x="567" y="145" width="3" height="3" fill="#ff4444" opacity="0.5"/>
<rect x="570" y="145" width="3" height="3" fill="#ff4444" opacity="0.5"/>
<rect x="546" y="148" width="3" height="3" fill="#ff4444" opacity="0.5"/>
<rect x="549" y="148" width="3" height="3" fill="#ff4444" opacity="0.5"/>
<rect x="552" y="148" width="3" height="3" fill="#ff4444" opacity="0.5"/>
<rect x="555" y="148" width="3" height="3" fill="#cc2222" opacity="0.5"/>
<rect x="558" y="148" width="3" height="3" fill="#cc2222" opacity="0.5"/>
<rect x="561" y="148" width="3" height="3" fill="#ff4444" opacity="0.5"/>
<rect x="564" y="148" width="3" height="3" fill="#ff4444" opacity="0.5"/>
<rect x="567" y="148" width="3" height="3" fill="#ff4444" opacity="0.5"/>
<rect x="570" y="148" width="3" height="3" fill="#ff4444" opacity="0.5"/>
<rect x="573" y="148" width="3" height="3" fill="#ff4444" opacity="0.5"/>
<rect x="546" y="151" width="3" height="3" fill="#ff4444" opacity="0.5"/>
<rect x="549" y="151" width="3" height="3" fill="#ff4444" opacity="0.5"/>
<rect x="552" y="151" width="3" height="3" fill="#cc2222" opacity="0.5"/>
<rect x="555" y="151" width="3" height="3" fill="#cc2222" opacity="0.5"/>
<rect x="558" y="151" width="3" height="3" fill="#cc2222" opacity="0.5"/>
<rect x="561" y="151" width="3" height="3" fill="#cc2222" opacity="0.5"/>
<rect x="564" y="151" width="3" height="3" fill="#ff4444" opacity="0.5"/>
<rect x="567" y="151" width="3" height="3" fill="#ff4444" opacity="0.5"/>
<rect x="570" y="151" width="3" height="3" fill="#ff4444" opacity="0.5"/>
<rect x="573" y="151" width="3" height="3" fill="#ff4444" opacity="0.5"/>
<rect x="546" y="154" width="3" height="3" fill="#ff4444" opacity="0.5"/>
<rect x="549" y="154" width="3" height="3" fill="#ff4444" opacity="0.5"/>
<rect x="552" y="154" width="3" height="3" fill="#ff4444" opacity="0.5"/>
<rect x="555" y="154" width="3" height="3" fill="#cc2222" opacity="0.5"/>
<rect x="558" y="154" width="3" height="3" fill="#cc2222" opacity="0.5"/>
<rect x="561" y="154" width="3" height="3" fill="#ff4444" opacity="0.5"/>
<rect x="564" y="154" width="3" height="3" fill="#ff4444" opacity="0.5"/>
<rect x="567" y="154" width="3" height="3" fill="#ff4444" opacity="0.5"/>
<rect x="570" y="154" width="3" height="3" fill="#ff4444" opacity="0.5"/>
<rect x="573" y="154" width="3" height="3" fill="#ff4444" opacity="0.5"/>
<rect x="549" y="157" width="3" height="3" fill="#ff4444" opacity="0.5"/>
<rect x="552" y="157" width="3" height="3" fill="#ff4444" opacity="0.5"/>
<rect x="555" y="157" width="3" height="3" fill="#ff4444" opacity="0.5"/>
<rect x="558" y="157" width="3" height="3" fill="#ff4444" opacity="0.5"/>
<rect x="561" y="157" width="3" height="3" fill="#ff4444" opacity="0.5"/>
<rect x="564" y="157" width="3" height="3" fill="#ff4444" opacity="0.5"/>
<rect x="567" y="157" width="3" height="3" fill="#ff4444" opacity="0.5"/>
<rect x="570" y="157" width="3" height="3" fill="#ff4444" opacity="0.5"/>
<rect x="552" y="160" width="3" height="3" fill="#ff4444" opacity="0.5"/>
<rect x="555" y="160" width="3" height="3" fill="#ff4444" opacity="0.5"/>
<rect x="558" y="160" width="3" height="3" fill="#ff4444" opacity="0.5"/>
<rect x="561" y="160" width="3" height="3" fill="#ff4444" opacity="0.5"/>
<rect x="564" y="160" width="3" height="3" fill="#ff4444" opacity="0.5"/>
<rect x="567" y="160" width="3" height="3" fill="#ff4444" opacity="0.5"/>
<rect x="546" y="166" width="3" height="3" fill="#666666" opacity="0.5"/>
<rect x="549" y="166" width="3" height="3" fill="#666666" opacity="0.5"/>
<rect x="570" y="166" width="3" height="3" fill="#666666" opacity="0.5"/>
<rect x="573" y="166" width="3" height="3" fill="#666666" opacity="0.5"/>
<rect x="549" y="169" width="3" height="3" fill="#666666" opacity="0.5"/>
<rect x="552" y="169" width="3" height="3" fill="#666666" opacity="0.5"/>
<rect x="567" y="169" width="3" height="3" fill="#666666" opacity="0.5"/>
<rect x="570" y="169" width="3" height="3" fill="#666666" opacity="0.5"/>
<rect x="552" y="172" width="3" height="3" fill="#666666" opacity="0.5"/>
<rect x="555" y="172" width="3" height="3" fill="#666666" opacity="0.5"/>
<rect x="558" y="172" width="3" height="3" fill="#666666" opacity="0.5"/>
<rect x="561" y="172" width="3" height="3" fill="#666666" opacity="0.5"/>
<rect x="564" y="172" width="3" height="3" fill="#666666" opacity="0.5"/>
<rect x="567" y="172" width="3" height="3" fill="#666666" opacity="0.5"/>
<rect x="110" y="22.5" width="2.5" height="2.5" fill="#ff4444" opacity="0.5"/>
<rect x="112.5" y="22.5" width="2.5" height="2.5" fill="#ff4444" opacity="0.5"/>
<rect x="115" y="22.5" width="2.5" height="2.5" fill="#ff4444" opacity="0.5"/>
<rect x="117.5" y="22.5" width="2.5" height="2.5" fill="#ff4444" opacity="0.5"/>
<rect x="120" y="22.5" width="2.5" height="2.5" fill="#ff4444" opacity="0.5"/>
<rect x="122.5" y="22.5" width="2.5" height="2.5" fill="#ff4444" opacity="0.5"/>
<rect x="107.5" y="25" width="2.5" height="2.5" fill="#ff4444" opacity="0.5"/>
<rect x="110" y="25" width="2.5" height="2.5" fill="#ff4444" opacity="0.5"/>
<rect x="122.5" y="25" width="2.5" height="2.5" fill="#44ff66" opacity="0.5"/>
<rect x="125" y="25" width="2.5" height="2.5" fill="#44ff66" opacity="0.5"/>
<rect x="105" y="27.5" width="2.5" height="2.5" fill="#ff4444" opacity="0.5"/>
<rect x="107.5" y="27.5" width="2.5" height="2.5" fill="#ff4444" opacity="0.5"/>
<rect x="125" y="27.5" width="2.5" height="2.5" fill="#44ff66" opacity="0.5"/>
<rect x="127.5" y="27.5" width="2.5" height="2.5" fill="#44ff66" opacity="0.5"/>
<rect x="105" y="30" width="2.5" height="2.5" fill="#ff4444" opacity="0.5"/>
<rect x="127.5" y="30" width="2.5" height="2.5" fill="#44ff66" opacity="0.5"/>
<rect x="105" y="32.5" width="2.5" height="2.5" fill="#ff4444" opacity="0.5"/>
<rect x="127.5" y="32.5" width="2.5" height="2.5" fill="#44ff66" opacity="0.5"/>
<rect x="105" y="35" width="2.5" height="2.5" fill="#44aaff" opacity="0.5"/>
<rect x="127.5" y="35" width="2.5" height="2.5" fill="#ffd700" opacity="0.5"/>
<rect x="105" y="37.5" width="2.5" height="2.5" fill="#44aaff" opacity="0.5"/>
<rect x="127.5" y="37.5" width="2.5" height="2.5" fill="#ffd700" opacity="0.5"/>
<rect x="105" y="40" width="2.5" height="2.5" fill="#44aaff" opacity="0.5"/>
<rect x="107.5" y="40" width="2.5" height="2.5" fill="#44aaff" opacity="0.5"/>
<rect x="125" y="40" width="2.5" height="2.5" fill="#ffd700" opacity="0.5"/>
<rect x="127.5" y="40" width="2.5" height="2.5" fill="#ffd700" opacity="0.5"/>
<rect x="107.5" y="42.5" width="2.5" height="2.5" fill="#44aaff" opacity="0.5"/>
<rect x="110" y="42.5" width="2.5" height="2.5" fill="#44aaff" opacity="0.5"/>
<rect x="122.5" y="42.5" width="2.5" height="2.5" fill="#ffd700" opacity="0.5"/>
<rect x="125" y="42.5" width="2.5" height="2.5" fill="#ffd700" opacity="0.5"/>
<rect x="110" y="45" width="2.5" height="2.5" fill="#44aaff" opacity="0.5"/>
<rect x="112.5" y="45" width="2.5" height="2.5" fill="#44aaff" opacity="0.5"/>
<rect x="115" y="45" width="2.5" height="2.5" fill="#44aaff" opacity="0.5"/>
<rect x="117.5" y="45" width="2.5" height="2.5" fill="#44aaff" opacity="0.5"/>
<rect x="120" y="45" width="2.5" height="2.5" fill="#44aaff" opacity="0.5"/>
<rect x="122.5" y="45" width="2.5" height="2.5" fill="#44aaff" opacity="0.5"/>
<rect x="117.5" y="50" width="2.5" height="2.5" fill="#ffffff" opacity="0.5"/>
<rect x="115" y="52.5" width="2.5" height="2.5" fill="#ffffff" opacity="0.5"/>
<rect x="117.5" y="52.5" width="2.5" height="2.5" fill="#ffffff" opacity="0.5"/>
<rect x="120" y="52.5" width="2.5" height="2.5" fill="#ffffff" opacity="0.5"/>
<rect x="117.5" y="55" width="2.5" height="2.5" fill="#ffffff" opacity="0.5"/>
<circle cx="250" cy="50" r="2" fill="#ffd700" opacity="0.3"/>
<circle cx="350" cy="180" r="2" fill="#ff6b6b" opacity="0.25"/>
<circle cx="500" cy="40" r="2" fill="#c084fc" opacity="0.3"/>
<circle cx="450" cy="190" r="1.5" fill="#44ff66" opacity="0.25"/>
<circle cx="300" cy="160" r="1.5" fill="#44aaff" opacity="0.25"/>
<text x="400" y="88" text-anchor="middle" font-size="30" fill="url(#title)">Mini Arcade</text>
<text x="400" y="116" text-anchor="middle" font-size="8" fill="#777">35 browser games · zero dependencies · just open and play</text>
<rect x="250" y="136" width="300" height="2" fill="#2a2a40" rx="1"/>
<rect x="330" y="136" width="140" height="2" rx="1" fill="url(#title)"/>
<text x="280" y="164" text-anchor="middle" font-size="7" fill="#44ff66">CLASSICS</text>
<text x="400" y="164" text-anchor="middle" font-size="7" fill="#ff8844">MODERN HITS</text>
<text x="520" y="164" text-anchor="middle" font-size="7" fill="#c084fc">ORIGINALS</text>
<text x="280" y="180" text-anchor="middle" font-size="6" fill="#777">15 games</text>
<text x="400" y="180" text-anchor="middle" font-size="6" fill="#777">7 games</text>
<text x="520" y="180" text-anchor="middle" font-size="6" fill="#777">13 games</text>
</svg>
