<svg xmlns="http://www.w3.org/2000/svg" viewBox="0 0 620 340" width="620" height="340">
  <rect width="620" height="340" fill="#0a0a16" rx="6"/>
  <defs><style>text{font-family:monospace;font-size:11px;} .dim{fill:#555;font-size:9px;} .lines{fill:#444;font-size:9px;}</style></defs>

  <!-- Folder icon -->
  <rect x="25" y="18" width="16" height="4" fill="#ffd700" rx="1"/>
  <rect x="20" y="22" width="24" height="14" fill="#ffd700" rx="2"/>
  <text fill="#ffd700" font-size="13" x="50" y="35" font-weight="bold">snake/</text>

  <!-- index.html -->
  <rect x="40" y="55" width="14" height="16" fill="#ff8844" rx="1"/>
  <text fill="#ff8844" font-size="7" x="42" y="66">&lt;/&gt;</text>
  <text fill="#e0e0e0" x="60" y="68">index.html</text>
  <text class="lines" x="160" y="68">~15 lines</text>
  <text class="dim" x="220" y="68">Entry point · GAME config + arcade.js loader</text>

  <!-- style.css -->
  <rect x="40" y="82" width="14" height="16" fill="#44aaff" rx="1"/>
  <text fill="#44aaff" font-size="7" x="43" y="93">#</text>
  <text fill="#e0e0e0" x="60" y="95">style.css</text>
  <text class="lines" x="160" y="95">~6 lines</text>
  <text class="dim" x="220" y="95">Accent color: --c-game: #44ff66</text>

  <!-- game.js -->
  <rect x="40" y="109" width="14" height="16" fill="#ffd700" rx="1"/>
  <text fill="#ffd700" font-size="7" x="43" y="120">JS</text>
  <text fill="#e0e0e0" x="60" y="122">game.js</text>
  <text class="lines" x="160" y="122">~95 lines</text>
  <text class="dim" x="220" y="122">Orchestrator · Engine loop, input, scoring</text>

  <!-- src folder -->
  <rect x="45" y="148" width="14" height="4" fill="#c084fc" rx="1"/>
  <rect x="40" y="152" width="22" height="12" fill="#c084fc" rx="2"/>
  <text fill="#c084fc" font-size="12" x="68" y="163" font-weight="bold">src/</text>

  <!-- config.js -->
  <rect x="60" y="180" width="14" height="16" fill="#44ff66" rx="1"/>
  <text fill="#44ff66" font-size="7" x="63" y="191">JS</text>
  <text fill="#e0e0e0" x="80" y="193">config.js</text>
  <text class="lines" x="180" y="193">~30 lines</text>
  <text class="dim" x="240" y="193">Grid size, speed, colors, scoring</text>

  <!-- board.js -->
  <rect x="60" y="207" width="14" height="16" fill="#44ff66" rx="1"/>
  <text fill="#44ff66" font-size="7" x="63" y="218">JS</text>
  <text fill="#e0e0e0" x="80" y="220">board.js</text>
  <text class="lines" x="180" y="220">~35 lines</text>
  <text class="dim" x="240" y="220">Background + grid line rendering</text>

  <!-- snake.js -->
  <rect x="60" y="234" width="14" height="16" fill="#44ff66" rx="1"/>
  <text fill="#44ff66" font-size="7" x="63" y="245">JS</text>
  <text fill="#e0e0e0" x="80" y="247">snake.js</text>
  <text class="lines" x="180" y="247">~130 lines</text>
  <text class="dim" x="240" y="247">Body, movement, collision, eyes</text>

  <!-- food.js -->
  <rect x="60" y="261" width="14" height="16" fill="#44ff66" rx="1"/>
  <text fill="#44ff66" font-size="7" x="63" y="272">JS</text>
  <text fill="#e0e0e0" x="80" y="274">food.js</text>
  <text class="lines" x="180" y="274">~70 lines</text>
  <text class="dim" x="240" y="274">Spawning + animated pulse glow</text>

  <!-- Tree lines -->
  <g stroke="#2a2a40" stroke-width="1" fill="none">
    <line x1="35" y1="50" x2="35" y2="130"/>
    <line x1="35" y1="63" x2="40" y2="63"/>
    <line x1="35" y1="90" x2="40" y2="90"/>
    <line x1="35" y1="117" x2="40" y2="117"/>
    <line x1="35" y1="130" x2="35" y2="158"/>
    <line x1="35" y1="158" x2="40" y2="158"/>
    <line x1="55" y1="175" x2="55" y2="280"/>
    <line x1="55" y1="188" x2="60" y2="188"/>
    <line x1="55" y1="215" x2="60" y2="215"/>
    <line x1="55" y1="242" x2="60" y2="242"/>
    <line x1="55" y1="269" x2="60" y2="269"/>
  </g>

  <!-- Load order -->
  <g transform="translate(20, 300)">
    <text fill="#888" font-size="9" x="0" y="10">Load order:</text>
    <rect x="80" y="0" width="60" height="16" fill="#12121f" stroke="#2a2a40" stroke-width="1" rx="2"/>
    <text fill="#888" font-size="8" x="88" y="11">shared/*</text>
    <text fill="#ffd700" font-size="10" x="145" y="11">→</text>
    <rect x="158" y="0" width="52" height="16" fill="#12121f" stroke="#44ff66" stroke-width="1" rx="2"/>
    <text fill="#44ff66" font-size="8" x="164" y="11">config</text>
    <text fill="#ffd700" font-size="10" x="215" y="11">→</text>
    <rect x="228" y="0" width="48" height="16" fill="#12121f" stroke="#44ff66" stroke-width="1" rx="2"/>
    <text fill="#44ff66" font-size="8" x="236" y="11">board</text>
    <text fill="#ffd700" font-size="10" x="281" y="11">→</text>
    <rect x="294" y="0" width="48" height="16" fill="#12121f" stroke="#44ff66" stroke-width="1" rx="2"/>
    <text fill="#44ff66" font-size="8" x="302" y="11">snake</text>
    <text fill="#ffd700" font-size="10" x="347" y="11">→</text>
    <rect x="360" y="0" width="42" height="16" fill="#12121f" stroke="#44ff66" stroke-width="1" rx="2"/>
    <text fill="#44ff66" font-size="8" x="368" y="11">food</text>
    <text fill="#ffd700" font-size="10" x="407" y="11">→</text>
    <rect x="420" y="0" width="60" height="16" fill="#12121f" stroke="#ffd700" stroke-width="1" rx="2"/>
    <text fill="#ffd700" font-size="8" x="426" y="11">game.js</text>
  </g>

  <rect width="620" height="340" fill="none" stroke="#2a2a40" stroke-width="2" rx="6"/>
</svg>
